#N canvas 2172 610 450 358 12;
#X obj 104 129 vsl 20 200 -100 12 0 1 empty empty empty 0 -9 0 12 #fcfcfc #000000 #000000 17446 1;
#X obj 221 53 fader-math;
#X obj 220 28 inlet~;
#X obj 301 28 inlet~;
#X obj 132 130 vu 20 200 empty empty -1 -10 0 12 #404040 #000000 0 0;
#X obj 156 130 vu 20 200 empty empty -1 -10 0 12 #404040 #000000 1 0;
#X obj 301 53 fader-math;
#X obj 221 78 outlet~;
#X obj 301 78 outlet~;
#X obj 76 57 vu-calc;
#X obj 140 57 vu-calc;
#X obj 104 104 tgl 20 1 empty empty empty 0 -10 0 12 #ff0400 #000000 #000000 0 1;
#X connect 0 0 1 2;
#X connect 0 0 6 2;
#X connect 1 0 7 0;
#X connect 1 0 9 0;
#X connect 2 0 1 0;
#X connect 3 0 6 0;
#X connect 6 0 8 0;
#X connect 6 0 10 0;
#X connect 9 0 4 0;
#X connect 10 0 5 0;
#X connect 11 0 1 1;
#X connect 11 0 6 1;
#X coords 0 -1 1 1 110 237 2 100 100;
