#N canvas 557 629 833 470 12;
#X obj 221 53 fader-math;
#X obj 221 28 inlet~;
#X obj 301 28 inlet~;
#X obj 132 130 vu 20 200 empty empty -1 -10 0 12 #404040 #000000 0 0;
#X obj 156 130 vu 20 200 empty empty -1 -10 0 12 #404040 #000000 1 0;
#X obj 301 53 fader-math;
#X obj 221 78 outlet~;
#X obj 301 78 outlet~;
#X obj 221 105 vu-calc;
#X obj 301 105 vu-calc;
#X obj 104 104 tgl 20 0 \$0-mute-s \$0-mute-r empty 0 -10 0 12 #ff0400 #000000 #000000 0 1;
#N canvas 304 282 645 393 numbercruncher 0;
#X obj 14 10 inlet;
#X obj 14 191 outlet;
#X obj 14 75 s \$0-mute-r;
#X obj 14 114 r \$0-mute-s;
#X obj 108 75 s \$0-fader-r;
#X obj 108 114 r \$0-fader-s;
#X obj 14 40 unpack f f;
#X text 117 38 Set values on load;
#X obj 14 165 pack f f;
#X text 113 167 Save values on save;
#X obj 99 11 inlet;
#X text 143 12 Bang should be sent here on save;
#X obj 14 138 f;
#X connect 0 0 6 0;
#X connect 3 0 12 1;
#X connect 5 0 8 1;
#X connect 6 0 2 0;
#X connect 6 1 4 0;
#X connect 6 1 8 1;
#X connect 8 0 1 0;
#X connect 10 0 12 0;
#X connect 12 0 8 0;
#X restore 288 279 pd numbercruncher;
#X obj 104 128 scaled-fader;
#X obj 104 347 s \$0-fader-s;
#X obj 8 69 r \$0-fader-r;
#X msg 104 28 0;
#X obj 344 250 savestate;
#X obj 388 28 r \$0-fader-s;
#X connect 0 0 6 0;
#X connect 0 0 8 0;
#X connect 1 0 0 0;
#X connect 2 0 5 0;
#X connect 5 0 7 0;
#X connect 5 0 9 0;
#X connect 8 0 3 0;
#X connect 9 0 4 0;
#X connect 10 0 0 1;
#X connect 10 0 5 1;
#X connect 11 0 16 0;
#X connect 12 0 13 0;
#X connect 14 0 12 0;
#X connect 15 0 12 0;
#X connect 16 0 11 0;
#X connect 16 1 11 1;
#X connect 17 0 5 2;
#X connect 17 0 0 2;
#X coords 0 -1 1 1 110 237 2 100 100;
