#N canvas 766 399 833 470 12;
#X obj 221 53 fader-math;
#X obj 220 28 inlet~;
#X obj 301 28 inlet~;
#X obj 132 130 vu 20 200 empty empty -1 -10 0 12 #404040 #000000 0 0;
#X obj 156 130 vu 20 200 empty empty -1 -10 0 12 #404040 #000000 1 0;
#X obj 301 53 fader-math;
#X obj 221 78 outlet~;
#X obj 301 78 outlet~;
#X obj 222 105 vu-calc;
#X obj 302 105 vu-calc;
#X obj 104 104 tgl 20 0 \$0-mute-s \$0-mute-r empty 0 -10 0 12 #ff0400 #000000 #000000 0 1;
#N canvas 774 622 645 393 numbercruncher 0;
#X obj 87 10 inlet;
#X obj 353 195 loadbang;
#X obj 101 350 outlet;
#X text 227 82 Sends creation argument list to the GOP;
#X text 292 211 Receives GOP values and sends them on again to the saver;
#X obj 43 226 t b f f;
#X floatatom 415 317 5 0 0 0 - - - 0;
#X text 365 337 Atoms can be used to control whatever you want here!;
#X obj 149 227 t b f f;
#X floatatom 456 317 5 0 0 0 - - - 0;
#X obj 43 140 s \$0-mute-r;
#X obj 43 197 r \$0-mute-s;
#X obj 150 139 s \$0-fader-r;
#X obj 149 196 r \$0-fader-s;
#X msg 43 273 symbol mute;
#X msg 149 272 symbol fader;
#X obj 87 44 unpack s f s f;
#X obj 353 220 t b b;
#X obj 101 312 pack s f s f;
#X connect 0 0 16 0;
#X connect 1 0 17 0;
#X connect 5 0 14 0;
#X connect 5 1 18 1;
#X connect 5 2 6 0;
#X connect 8 0 14 0;
#X connect 8 1 18 3;
#X connect 8 2 9 0;
#X connect 11 0 5 0;
#X connect 13 0 8 0;
#X connect 14 0 18 0;
#X connect 15 0 18 2;
#X connect 16 1 10 0;
#X connect 16 3 12 0;
#X connect 17 0 14 0;
#X connect 17 1 15 0;
#X connect 18 0 2 0;
#X restore 298 333 pd numbercruncher;
#X obj 298 404 iemguts/canvasargs;
#X obj 298 254 iemguts/canvasargs;
#X obj 271 206 loadbang;
#X obj 298 302 list trim;
#X obj 298 279 list;
#X obj 271 230 t b b;
#X msg 271 253 1;
#X obj 298 359 spigot;
#X text 339 352 This spigot is necessary because if one [canvasargs] object feeds the creation argument straight into another it will cause PD to crash.;
#X obj 104 128 scaled-fader;
#X obj 104 347 s \$0-fader-s;
#X obj 22 74 r \$0-fader-r;
#X msg 104 28 0;
#X connect 0 0 6 0;
#X connect 0 0 8 0;
#X connect 1 0 0 0;
#X connect 2 0 5 0;
#X connect 5 0 7 0;
#X connect 5 0 9 0;
#X connect 8 0 3 0;
#X connect 9 0 4 0;
#X connect 10 0 0 1;
#X connect 10 0 5 1;
#X connect 11 0 19 0;
#X connect 13 0 16 0;
#X connect 14 0 17 0;
#X connect 15 0 11 0;
#X connect 16 0 15 0;
#X connect 17 0 18 0;
#X connect 17 1 13 0;
#X connect 18 0 19 1;
#X connect 19 0 12 0;
#X connect 21 0 0 2;
#X connect 21 0 5 2;
#X connect 21 0 22 0;
#X connect 23 0 21 0;
#X connect 23 0 0 2;
#X connect 23 0 5 2;
#X connect 24 0 21 0;
#X coords 0 -1 1 1 110 237 2 100 100;
