#N canvas 295 420 1190 468 12;
#X obj 103 154 vsl 20 200 -100 10 0 1 \$0-fader-s \$0-fader-r empty 0 -9 0 12 #fcfcfc #000000 #000000 0 1;
#X obj 334 29 inlet~;
#X obj 338 288 *~;
#X obj 103 128 tgl 20 1 \$0-mute-s \$0-mute-r empty 0 -10 0 12 #ffffff #ff0400 #000000 1 1;
#X obj 156 128 else/knob 20 0.001 1 1 1 \$0-aux1-s \$0-aux1-r #dfdfdf #7c7c7c black 1 0 0 0 1 320 0 0 0.001;
#X obj 132 154 vu 20 200 empty empty -1 -10 0 12 #404040 #000000 0 0;
#X obj 333 59 vu-calc;
#X obj 156 154 vu 20 200 empty empty -1 -10 0 12 #404040 #000000 1 0;
#X obj 392 58 vu-calc;
#X obj 384 29 inlet~;
#X obj 369 288 *~;
#X obj 469 29 inlet;
#X text 241 213 Fader;
#X obj 240 235 pack 0 50;
#X obj 240 260 line~;
#X text 522 293 Aux Send 1;
#X obj 61 420 outlet;
#X obj 522 364 *~;
#X text 344 316 Main Out;
#N canvas 595 382 878 535 numbercruncher 0;
#X obj 87 10 inlet;
#X obj 668 196 loadbang;
#X obj 43 501 outlet;
#X text 371 73 Sends creation argument list to the GOP;
#X text 423 258 Receives GOP values and sends them on again to the saver;
#X obj 245 225 t b f f;
#X obj 43 226 t b f f;
#X floatatom 242 308 5 0 0 0 - - - 0;
#X floatatom 43 308 5 0 0 0 - - - 0;
#X text 365 337 Atoms can be used to control whatever you want here!;
#X obj 43 140 s \$0-fader-r;
#X obj 43 197 r \$0-fader-s;
#X obj 150 139 s \$0-mute-r;
#X obj 149 196 r \$0-mute-s;
#X obj 149 227 t b f f;
#X floatatom 148 308 5 0 0 0 - - - 0;
#X obj 241 138 s \$0-aux1-r;
#X obj 245 196 r \$0-aux1-s;
#X msg 43 282 symbol fader;
#X msg 148 282 symbol mute;
#X msg 242 282 symbol aux1;
#X obj 458 138 s \$0-aux2-r;
#X obj 458 196 r \$0-aux2-s;
#X obj 458 224 t b f f;
#X msg 456 282 symbol aux2;
#X floatatom 456 308 5 0 0 0 - - - 0;
#X obj 333 226 t b f f;
#X obj 334 138 s \$0-aux1-mute-r;
#X obj 333 195 r \$0-aux1-mute-s;
#X obj 87 44 unpack s f s f s f s f s f s f;
#X obj 546 224 t b f f;
#X obj 546 138 s \$0-aux2-mute-r;
#X obj 546 196 r \$0-aux2-mute-s;
#X floatatom 331 308 5 0 0 0 - - - 0;
#X msg 331 282 symbol aux1-mute;
#X obj 43 463 pack s f s f s f s f s f s f;
#X obj 668 221 t b b b b b b;
#X floatatom 545 308 5 0 0 0 - - - 0;
#X msg 545 282 symbol aux2-mute;
#X connect 0 0 29 0;
#X connect 1 0 36 0;
#X connect 5 0 18 0;
#X connect 5 1 35 5;
#X connect 5 2 7 0;
#X connect 6 0 18 0;
#X connect 6 1 35 1;
#X connect 6 2 8 0;
#X connect 11 0 6 0;
#X connect 13 0 14 0;
#X connect 14 0 18 0;
#X connect 14 1 35 3;
#X connect 14 2 15 0;
#X connect 17 0 5 0;
#X connect 18 0 35 0;
#X connect 19 0 35 2;
#X connect 20 0 35 4;
#X connect 22 0 23 0;
#X connect 23 0 18 0;
#X connect 23 1 35 9;
#X connect 23 2 25 0;
#X connect 24 0 35 8;
#X connect 26 0 18 0;
#X connect 26 1 35 7;
#X connect 26 2 33 0;
#X connect 28 0 26 0;
#X connect 29 1 10 0;
#X connect 29 3 12 0;
#X connect 29 5 16 0;
#X connect 29 7 27 0;
#X connect 29 9 21 0;
#X connect 29 11 31 0;
#X connect 30 0 18 0;
#X connect 30 1 35 11;
#X connect 30 2 37 0;
#X connect 32 0 30 0;
#X connect 34 0 35 6;
#X connect 35 0 2 0;
#X connect 36 0 18 0;
#X connect 36 1 19 0;
#X connect 36 2 20 0;
#X connect 36 3 34 0;
#X connect 36 4 24 0;
#X connect 36 5 38 0;
#X connect 38 0 35 10;
#X restore 717 151 pd numbercruncher;
#X obj 717 222 iemguts/canvasargs;
#X obj 717 72 iemguts/canvasargs;
#X obj 681 25 loadbang;
#X obj 717 120 list trim;
#X obj 717 97 list;
#X obj 681 49 t b b;
#X msg 681 72 1;
#X obj 717 177 spigot;
#X text 767 171 This spigot is necessary because if one [canvasargs] object feeds the creation argument straight into another it will cause PD to crash.;
#X floatatom 240 391 5 0 0 0 - - - 0;
#X obj 240 366 dbtorms;
#X obj 240 340 + 100;
#X msg 102 61 0;
#X obj 469 59 rescale -in 0 1 -100 6;
#X obj 61 394 rescale -in -100 6 0 1;
#X obj 337 341 throw~ bus-l;
#X obj 429 341 throw~ bus-r;
#X obj 523 389 throw~ bus-1;
#X obj 338 416 send osc-send;
#X msg 338 389 send /strip/fader 1 \$1;
#X obj 180 128 else/knob 20 0.01 1 1 1 \$0-aux2-s \$0-aux2-r #ff8300 #7c7c7c black 1 0 0 0 1 320 0 0 0.01;
#X obj 615 364 *~;
#X text 615 293 Aux Send 2;
#X obj 616 389 throw~ bus-2-l;
#X obj 721 364 *~;
#X obj 722 389 throw~ bus-2-r;
#X obj 156 104 tgl 20 1 \$0-aux1-mute-s \$0-aux1-mute-r empty 0 -10 0 12 #ffffff #ff0400 #000000 1 1;
#X obj 180 104 tgl 20 1 \$0-aux2-mute-s \$0-aux2-mute-r empty 0 -10 0 12 #ffffff #ff0400 #000000 1 1;
#X obj 330 156 mute-switch;
#X obj 418 156 mute-switch;
#X obj 522 340 mute-switch;
#X obj 615 339 mute-switch;
#X obj 721 339 mute-switch;
#X obj 132 128 else/knob 20 0.01 1 1 1 \$0-aux2-s \$0-aux2-r #9c00ff #7c7c7c black 1 0 0 0 1 320 0 0 0.01;
#X obj 132 104 tgl 20 1 \$0-aux2-mute-s \$0-aux2-mute-r empty 0 -10 0 12 #ffffff #ff0400 #000000 1 1;
#X obj 103 104 tgl 20 1 \$0-mute-s \$0-mute-r empty 0 -10 0 12 #ff0400 #000000 #000000 1 1;
#X connect 0 0 31 0;
#X connect 0 0 34 0;
#X connect 0 0 39 0;
#X connect 1 0 6 0;
#X connect 1 0 48 0;
#X connect 2 0 35 0;
#X connect 2 0 50 0;
#X connect 3 0 46 0;
#X connect 4 0 13 0;
#X connect 6 0 5 0;
#X connect 8 0 7 0;
#X connect 9 0 8 0;
#X connect 9 0 49 0;
#X connect 10 0 36 0;
#X connect 10 0 50 0;
#X connect 11 0 33 0;
#X connect 13 0 14 0;
#X connect 14 0 10 1;
#X connect 14 0 2 1;
#X connect 17 0 37 0;
#X connect 19 0 27 0;
#X connect 21 0 24 0;
#X connect 22 0 25 0;
#X connect 23 0 19 0;
#X connect 24 0 23 0;
#X connect 25 0 26 0;
#X connect 25 1 21 0;
#X connect 26 0 27 1;
#X connect 27 0 20 0;
#X connect 29 0 4 0;
#X connect 30 0 29 0;
#X connect 31 0 30 0;
#X connect 32 0 0 0;
#X connect 33 0 0 0;
#X connect 34 0 16 0;
#X connect 39 0 38 0;
#X connect 40 0 41 1;
#X connect 40 0 44 1;
#X connect 41 0 43 0;
#X connect 44 0 45 0;
#X connect 47 0 51 1;
#X connect 47 0 52 1;
#X connect 48 0 2 0;
#X connect 48 0 51 0;
#X connect 49 0 10 0;
#X connect 49 0 52 0;
#X connect 50 0 17 0;
#X connect 51 0 41 0;
#X connect 52 0 44 0;
#X connect 53 0 17 1;
#X connect 54 0 50 1;
#X connect 55 0 48 1;
#X connect 55 0 49 1;
#X coords 0 -1 1 1 110 262 2 100 100;
