#N canvas 503 491 1173 462 12;
#X obj 300 35 inlet~;
#X obj 103 128 tgl 20 1 \$0-mute-s \$0-mute-r empty 0 -10 0 12 #ffffff #ff0400 #000000 1 1;
#X obj 156 128 else/knob 20 -100 10 0 1 \$0-aux1-s \$0-aux1-r #dfdfdf #7c7c7c black 1 0 0 0 1 320 0 0 0.001;
#X obj 132 154 vu 20 200 empty empty -1 -10 0 12 #404040 #000000 0 0;
#X obj 487 146 vu-calc;
#X obj 156 154 vu 20 200 empty empty -1 -10 0 12 #404040 #000000 1 0;
#X obj 546 145 vu-calc;
#X obj 350 35 inlet~;
#X obj 435 35 inlet;
#X obj 61 420 outlet;
#X text 305 323 Main Out;
#N canvas 317 282 1189 535 numbercruncher 0;
#X obj 87 10 inlet;
#X obj 1047 196 loadbang;
#X obj 43 501 outlet;
#X text 371 73 Sends creation argument list to the GOP;
#X text 282 257 Receives GOP values and sends them on again to the saver;
#X obj 245 221 t b f f;
#X obj 43 222 t b f f;
#X floatatom 242 308 5 0 0 0 - - - 0;
#X floatatom 43 308 5 0 0 0 - - - 0;
#X text 365 337 Atoms can be used to control whatever you want here!;
#X obj 43 140 s \$0-fader-r;
#X obj 43 197 r \$0-fader-s;
#X obj 150 139 s \$0-mute-r;
#X obj 149 196 r \$0-mute-s;
#X obj 149 223 t b f f;
#X floatatom 148 308 5 0 0 0 - - - 0;
#X obj 241 138 s \$0-aux1-r;
#X obj 245 196 r \$0-aux1-s;
#X msg 43 282 symbol fader;
#X msg 148 282 symbol mute;
#X msg 242 282 symbol aux1;
#X obj 458 138 s \$0-aux2-r;
#X obj 458 196 r \$0-aux2-s;
#X obj 458 220 t b f f;
#X msg 456 282 symbol aux2;
#X floatatom 456 308 5 0 0 0 - - - 0;
#X obj 333 222 t b f f;
#X obj 334 138 s \$0-aux1-mute-r;
#X obj 333 195 r \$0-aux1-mute-s;
#X obj 546 220 t b f f;
#X obj 546 138 s \$0-aux2-mute-r;
#X obj 546 196 r \$0-aux2-mute-s;
#X floatatom 331 308 5 0 0 0 - - - 0;
#X msg 331 282 symbol aux1-mute;
#X floatatom 545 308 5 0 0 0 - - - 0;
#X msg 545 282 symbol aux2-mute;
#X obj 668 196 r \$0-channel-num-s;
#X obj 669 138 s \$0-channel-num-r;
#X obj 668 221 t b f f;
#X msg 671 282 symbol channel-num;
#X floatatom 671 309 5 0 0 0 - - - 0;
#X obj 809 221 t b f f;
#X floatatom 812 309 5 0 0 0 - - - 0;
#X obj 810 138 s \$0-master-mute-r;
#X obj 809 196 r \$0-master-mute-s;
#X msg 812 282 symbol master-mute;
#X obj 953 221 t b f f;
#X floatatom 956 309 5 0 0 0 - - - 0;
#X obj 954 138 s \$0-gain-r;
#X obj 953 196 r \$0-gain-s;
#X msg 956 282 symbol gain;
#X obj 87 44 unpack s f s f s f s f s f s f s f s f s f;
#X obj 1047 221 t b b b b b b b b b;
#X obj 43 463 pack s f s f s f s f s f s f s f s f s f;
#X connect 0 0 51 0;
#X connect 1 0 52 0;
#X connect 5 0 18 0;
#X connect 5 1 53 5;
#X connect 5 2 7 0;
#X connect 6 0 18 0;
#X connect 6 1 53 1;
#X connect 6 2 8 0;
#X connect 11 0 6 0;
#X connect 13 0 14 0;
#X connect 14 0 18 0;
#X connect 14 1 53 3;
#X connect 14 2 15 0;
#X connect 17 0 5 0;
#X connect 18 0 53 0;
#X connect 19 0 53 2;
#X connect 20 0 53 4;
#X connect 22 0 23 0;
#X connect 23 0 18 0;
#X connect 23 1 53 9;
#X connect 23 2 25 0;
#X connect 24 0 53 8;
#X connect 26 0 18 0;
#X connect 26 1 53 7;
#X connect 26 2 32 0;
#X connect 28 0 26 0;
#X connect 29 0 18 0;
#X connect 29 1 53 11;
#X connect 29 2 34 0;
#X connect 31 0 29 0;
#X connect 33 0 53 6;
#X connect 35 0 53 10;
#X connect 36 0 38 0;
#X connect 38 0 18 0;
#X connect 38 1 53 13;
#X connect 38 2 40 0;
#X connect 39 0 53 12;
#X connect 41 0 18 0;
#X connect 41 1 53 15;
#X connect 41 2 42 0;
#X connect 44 0 41 0;
#X connect 45 0 53 14;
#X connect 46 0 18 0;
#X connect 46 1 53 17;
#X connect 46 2 47 0;
#X connect 49 0 46 0;
#X connect 50 0 53 16;
#X connect 51 1 10 0;
#X connect 51 3 12 0;
#X connect 51 5 16 0;
#X connect 51 7 27 0;
#X connect 51 9 21 0;
#X connect 51 11 30 0;
#X connect 51 13 37 0;
#X connect 51 15 43 0;
#X connect 51 17 48 0;
#X connect 52 0 18 0;
#X connect 52 1 19 0;
#X connect 52 2 20 0;
#X connect 52 3 33 0;
#X connect 52 4 24 0;
#X connect 52 5 35 0;
#X connect 52 6 39 0;
#X connect 52 7 45 0;
#X connect 52 8 50 0;
#X connect 53 0 2 0;
#X restore 683 157 pd numbercruncher;
#X obj 683 228 iemguts/canvasargs;
#X obj 683 78 iemguts/canvasargs;
#X obj 647 31 loadbang;
#X obj 683 126 list trim;
#X obj 683 103 list;
#X obj 647 55 t b b;
#X msg 647 78 1;
#X obj 683 183 spigot;
#X text 733 177 This spigot is necessary because if one [canvasargs] object feeds the creation argument straight into another it will cause PD to crash., f 49;
#X msg 102 77 0;
#X obj 298 348 throw~ bus-l;
#X obj 390 348 throw~ bus-r;
#X obj 489 395 throw~ bus-1;
#X obj 180 128 else/knob 20 -100 10 0 1 \$0-aux3-s \$0-aux3-r #ff8300 #7c7c7c black 1 0 0 0 1 320 0 0 0.01;
#X text 581 299 Aux Send 2;
#X obj 582 395 throw~ bus-2-l;
#X obj 688 395 throw~ bus-2-r;
#X obj 156 104 tgl 20 1 \$0-aux1-mute-s \$0-aux1-mute-r empty 0 -10 0 12 #ffffff #ff0400 #000000 1 1;
#X obj 180 104 tgl 20 1 \$0-aux2-mute-s \$0-aux2-mute-r empty 0 -10 0 12 #ffffff #ff0400 #000000 1 1;
#X obj 132 128 else/knob 20 -100 10 0 1 \$0-aux2-s \$0-aux2-r #9c00ff #7c7c7c black 1 0 0 0 1 320 0 0 0.01;
#X obj 132 104 tgl 20 1 \$0-aux2-mute-s \$0-aux2-mute-r empty 0 -10 0 12 #ffffff #ff0400 #000000 1 1;
#X obj 103 104 tgl 20 1 \$0-master-mute-s \$0-master-mute-r empty 0 -10 0 12 #ff0400 #000000 #000000 1 1;
#X obj 298 110 fader-math;
#X obj 384 110 fader-math;
#X obj 294 177 fader-math;
#X obj 380 176 fader-math;
#X obj 490 355 fader-math;
#X obj 584 355 fader-math;
#X obj 687 355 fader-math;
#X msg 137 77 0;
#X msg 172 77 0;
#X msg 207 77 0;
#X floatatom 4 30 5 0 0 0 - - - 0;
#X obj 4 5 r \$0-channel-num-r;
#X obj 4 54 s \$0-channel-num-s;
#N canvas 458 418 1202 298 osc 0;
#X obj 386 32 route /strip/fader;
#X obj 386 6 receive osc-receive;
#X obj 386 57 route;
#X obj 6 6 r \$0-channel-num-s;
#X obj 386 82 s \$0-fader-r;
#X obj 385 266 send osc-send;
#X obj 385 212 pack f f;
#X msg 385 239 send /strip/fader \$2 \$1;
#X obj 385 184 r \$0-fader-s;
#X obj 566 57 route;
#X obj 565 212 pack f f;
#X msg 565 239 send /strip/mute \$2 \$1;
#X obj 566 32 route /strip/mute;
#X obj 566 82 s \$0-mute-r;
#X obj 565 184 r \$0-mute-s;
#X obj 739 57 route;
#X obj 738 212 pack f f;
#X obj 739 32 route /strip/master-mute;
#X obj 739 82 s \$0-master-mute-r;
#X obj 738 184 r \$0-master-mute-s;
#X msg 738 239 send /strip/master-mute \$2 \$1;
#X obj 4 95 inlet;
#X obj 50 95 inlet;
#X obj 4 130 pack f f;
#X obj 193 130 pack f f;
#X msg 4 157 send /strip/meter-l \$2 \$1;
#X msg 193 157 send /strip/meter-r \$2 \$1;
#X obj 960 57 route;
#X obj 959 212 pack f f;
#X msg 959 239 send /strip/gain \$2 \$1;
#X obj 959 184 r \$0-gain-s;
#X obj 960 32 route /strip/gain;
#X obj 960 82 s \$0-gain-r;
#X connect 0 0 2 0;
#X connect 1 0 0 0;
#X connect 1 0 12 0;
#X connect 1 0 17 0;
#X connect 1 0 31 0;
#X connect 2 0 4 0;
#X connect 3 0 2 1;
#X connect 3 0 6 1;
#X connect 3 0 9 1;
#X connect 3 0 10 1;
#X connect 3 0 15 1;
#X connect 3 0 16 1;
#X connect 3 0 23 1;
#X connect 3 0 24 1;
#X connect 3 0 27 1;
#X connect 3 0 28 1;
#X connect 6 0 7 0;
#X connect 7 0 5 0;
#X connect 8 0 6 0;
#X connect 9 0 13 0;
#X connect 10 0 11 0;
#X connect 11 0 5 0;
#X connect 12 0 9 0;
#X connect 14 0 10 0;
#X connect 15 0 18 0;
#X connect 16 0 20 0;
#X connect 17 0 15 0;
#X connect 19 0 16 0;
#X connect 20 0 5 0;
#X connect 21 0 23 0;
#X connect 22 0 24 0;
#X connect 23 0 25 0;
#X connect 24 0 26 0;
#X connect 25 0 5 0;
#X connect 26 0 5 0;
#X connect 27 0 32 0;
#X connect 28 0 29 0;
#X connect 29 0 5 0;
#X connect 30 0 28 0;
#X connect 31 0 27 0;
#X restore 166 18 pd osc;
#X obj 43 97 knob 50 0 20 0 0 \$0-gain-s \$0-gain-r #dfdfdf #7c7c7c black 1 0 0 0 1 320 0 0 0;
#X text 43 77 Gain;
#X text 488 299 Aux Send 1;
#N canvas 615 428 864 502 sof-fader 0;
#X obj 100 102 vsl 20 200 -100 12 0 0 empty empty empty 0 -9 0 10 #fcfcfc #000000 #000000 0 1;
#X obj 123 26 inlet;
#X obj 357 455 outlet;
#X obj 109 455 outlet;
#X obj 152 300 tgl 15 0 empty empty empty 17 7 0 10 #fcfcfc #000000 #000000 0 1;
#X obj 150 266 == 0;
#X obj 398 298 tgl 15 0 empty empty empty 17 7 0 10 #fcfcfc #000000 #000000 0 1;
#X obj 109 325 spigot 0;
#X obj 356 328 spigot 0;
#X obj 175 382 v \$0-2sta;
#X obj 404 363 v \$0-2stb;
#X msg 404 407 set \$1;
#X msg 175 456 set \$1;
#X obj 190 147 t f f;
#X floatatom 175 406 5 0 0 0 - - - 0;
#X floatatom 404 385 5 0 0 0 - - - 0;
#X obj 123 48 route 0 1;
#X obj 13 13 loadbang;
#X obj 21 63 r sof-select-s;
#X floatatom 13 92 5 0 0 0 - - - 0;
#X obj 398 265 == 1;
#X obj 149 77 route 0 1 2 3;
#X obj 190 180 sel 0 1 2 3;
#X obj 519 455 outlet;
#X obj 560 300 tgl 15 0 empty empty empty 17 7 0 10 #fcfcfc #000000 #000000 0 1;
#X obj 518 328 spigot 0;
#X msg 566 407 set \$1;
#X floatatom 566 385 5 0 0 0 - - - 0;
#X obj 678 455 outlet;
#X obj 719 300 tgl 15 0 empty empty empty 17 7 0 10 #fcfcfc #000000 #000000 0 1;
#X obj 677 328 spigot 0;
#X msg 725 407 set \$1;
#X floatatom 725 385 5 0 0 0 - - - 0;
#X obj 560 265 == 2;
#X obj 719 265 == 3;
#X obj 566 363 v \$0-2stc;
#X obj 725 363 v \$0-2std;
#X obj 175 299 r \$0-gain-s;
#X obj 421 295 r \$0-aux1-s;
#X obj 585 301 r \$0-aux2-s;
#X obj 749 299 r \$0-aux3-s;
#X obj 175 430 rescale -in 0 20 -100 12;
#X obj 175 352 rescale -in -100 12 0 20;
#X obj 439 327 t b;
#X obj 587 330 t b;
#X obj 748 327 t b;
#X obj 409 455 s \$0-aux1-r;
#X obj 572 455 s \$0-aux2-r;
#X obj 732 455 s \$0-aux3-r;
#X obj 13 455 s \$0-fader-s;
#X obj 196 25 r \$0-fader-r;
#X obj 13 430 change;
#X msg 13 35 1;
#X obj 262 299 t b;
#X obj 262 324 spigot 0;
#X obj 234 457 s \$0-gain-r;
#X connect 0 0 7 0;
#X connect 0 0 8 0;
#X connect 0 0 25 0;
#X connect 0 0 30 0;
#X connect 1 0 16 0;
#X connect 4 0 7 1;
#X connect 4 0 54 1;
#X connect 5 0 4 0;
#X connect 6 0 8 1;
#X connect 7 0 3 0;
#X connect 7 0 42 0;
#X connect 8 0 10 0;
#X connect 8 0 2 0;
#X connect 8 0 46 0;
#X connect 9 0 14 0;
#X connect 10 0 15 0;
#X connect 11 0 0 0;
#X connect 12 0 0 0;
#X connect 13 0 22 0;
#X connect 13 1 5 0;
#X connect 13 1 20 0;
#X connect 13 1 33 0;
#X connect 13 1 34 0;
#X connect 14 0 41 0;
#X connect 15 0 11 0;
#X connect 15 0 51 0;
#X connect 16 0 0 0;
#X connect 16 1 21 0;
#X connect 17 0 52 0;
#X connect 18 0 19 0;
#X connect 19 0 13 0;
#X connect 20 0 6 0;
#X connect 21 0 42 0;
#X connect 21 1 10 0;
#X connect 21 2 35 0;
#X connect 21 3 36 0;
#X connect 22 0 9 0;
#X connect 22 1 10 0;
#X connect 22 2 35 0;
#X connect 22 3 36 0;
#X connect 24 0 25 1;
#X connect 25 0 23 0;
#X connect 25 0 35 0;
#X connect 25 0 47 0;
#X connect 26 0 0 0;
#X connect 27 0 26 0;
#X connect 27 0 51 0;
#X connect 29 0 30 1;
#X connect 30 0 28 0;
#X connect 30 0 36 0;
#X connect 30 0 48 0;
#X connect 31 0 0 0;
#X connect 32 0 31 0;
#X connect 32 0 51 0;
#X connect 33 0 24 0;
#X connect 34 0 29 0;
#X connect 35 0 27 0;
#X connect 36 0 32 0;
#X connect 37 0 9 0;
#X connect 37 0 53 0;
#X connect 38 0 10 0;
#X connect 38 0 43 0;
#X connect 39 0 35 0;
#X connect 39 0 44 0;
#X connect 40 0 36 0;
#X connect 40 0 45 0;
#X connect 41 0 12 0;
#X connect 41 0 51 0;
#X connect 42 0 9 0;
#X connect 42 0 55 0;
#X connect 43 0 8 0;
#X connect 44 0 25 0;
#X connect 45 0 30 0;
#X connect 50 0 0 0;
#X connect 51 0 49 0;
#X connect 52 0 19 0;
#X connect 53 0 54 0;
#X connect 54 0 9 0;
#X coords 0 -1 1 1 20 205 2 100 100;
#X restore 103 152 pd sof-fader;
#X obj 435 62 rescale -in 0 1 -100 12;
#X obj 61 394 rescale -in -100 12 0 1;
#X msg 435 87 0 \$1;
#X connect 0 0 34 0;
#X connect 2 0 36 2;
#X connect 2 0 37 2;
#X connect 4 0 3 0;
#X connect 4 0 47 0;
#X connect 6 0 5 0;
#X connect 6 0 47 1;
#X connect 7 0 35 0;
#X connect 8 0 52 0;
#X connect 11 0 19 0;
#X connect 13 0 16 0;
#X connect 14 0 17 0;
#X connect 15 0 11 0;
#X connect 16 0 15 0;
#X connect 17 0 18 0;
#X connect 17 1 13 0;
#X connect 18 0 19 1;
#X connect 19 0 12 0;
#X connect 21 0 48 0;
#X connect 25 0 39 2;
#X connect 25 0 40 2;
#X connect 29 0 36 1;
#X connect 29 0 37 1;
#X connect 30 0 39 1;
#X connect 30 0 40 1;
#X connect 31 0 38 2;
#X connect 32 0 38 1;
#X connect 33 0 34 1;
#X connect 33 0 35 1;
#X connect 34 0 36 0;
#X connect 34 0 39 0;
#X connect 34 0 4 0;
#X connect 35 0 37 0;
#X connect 35 0 40 0;
#X connect 35 0 6 0;
#X connect 36 0 22 0;
#X connect 36 0 38 0;
#X connect 37 0 23 0;
#X connect 37 0 38 0;
#X connect 38 0 24 0;
#X connect 39 0 27 0;
#X connect 40 0 28 0;
#X connect 41 0 31 0;
#X connect 42 0 2 0;
#X connect 43 0 25 0;
#X connect 44 0 46 0;
#X connect 45 0 44 0;
#X connect 48 0 34 2;
#X connect 48 0 35 2;
#X connect 51 0 53 0;
#X connect 52 0 54 0;
#X connect 53 0 9 0;
#X connect 54 0 51 0;
#X coords 0 -1 1 1 110 262 2 100 100;
