#N canvas 572 418 1173 462 12;
#X obj 300 35 inlet~;
#X obj 103 128 tgl 20 1 \$0-mute-button-s \$0-mute-button-r empty 0 -10 0 12 #ffffff #ff0400 #000000 0 1;
#X obj 156 128 else/knob 20 -100 10 0 1 \$0-aux1-knob-s \$0-aux1-knob-r #dfdfdf #7c7c7c black 1 0 0 0 1 320 0 0 0.001;
#X obj 132 154 vu 20 200 empty empty -1 -10 0 12 #404040 #000000 0 0;
#X obj 484 176 vu-calc;
#X obj 156 154 vu 20 200 empty empty -1 -10 0 12 #404040 #000000 1 0;
#X obj 543 175 vu-calc;
#X obj 350 35 inlet~;
#X obj 450 30 inlet;
#X obj 61 420 outlet;
#X text 305 323 Main Out;
#N canvas 2481 472 1189 535 numbercruncher 0;
#X obj 87 10 inlet;
#X obj 850 172 loadbang;
#X obj 43 501 outlet;
#X text 371 73 Sends creation argument list to the GOP;
#X text 319 258 Receives GOP values and sends them on again to the saver;
#X obj 282 222 t b f f;
#X obj 43 222 t b f f;
#X floatatom 279 309 5 0 0 0 - - - 0;
#X floatatom 43 308 5 0 0 0 - - - 0;
#X text 402 338 Atoms can be used to control whatever you want here!;
#X obj 186 224 t b f f;
#X floatatom 185 309 5 0 0 0 - - - 0;
#X obj 278 139 s \$0-aux1-r;
#X obj 282 197 r \$0-aux1-s;
#X msg 279 283 symbol aux1;
#X obj 495 139 s \$0-aux2-r;
#X obj 495 197 r \$0-aux2-s;
#X obj 495 221 t b f f;
#X msg 493 283 symbol aux2;
#X floatatom 493 309 5 0 0 0 - - - 0;
#X obj 370 223 t b f f;
#X obj 371 139 s \$0-aux1-mute-r;
#X obj 370 196 r \$0-aux1-mute-s;
#X obj 583 221 t b f f;
#X obj 583 139 s \$0-aux2-mute-r;
#X obj 583 197 r \$0-aux2-mute-s;
#X floatatom 368 309 5 0 0 0 - - - 0;
#X msg 368 283 symbol aux1-mute;
#X floatatom 582 309 5 0 0 0 - - - 0;
#X msg 582 283 symbol aux2-mute;
#X obj 705 197 r \$0-channel-num-s;
#X obj 706 139 s \$0-channel-num-r;
#X obj 705 222 t b f f;
#X msg 708 283 symbol channel-num;
#X floatatom 708 310 5 0 0 0 - - - 0;
#X obj 43 140 s \$0-master-mute-r;
#X obj 43 197 r \$0-master-mute-s;
#X msg 43 282 symbol master-mute;
#X obj 187 140 s \$0-gain-r;
#X obj 186 197 r \$0-gain-s;
#X msg 185 283 symbol gain;
#X obj 850 197 t b b b b b b b;
#X obj 87 44 unpack s f s f s f s f s f s f s f;
#X obj 43 463 pack s f s f s f s f s f s f s f;
#X connect 0 0 42 0;
#X connect 1 0 41 0;
#X connect 5 0 37 0;
#X connect 5 1 43 5;
#X connect 5 2 7 0;
#X connect 6 0 37 0;
#X connect 6 1 43 1;
#X connect 6 2 8 0;
#X connect 10 0 37 0;
#X connect 10 1 43 3;
#X connect 10 2 11 0;
#X connect 13 0 5 0;
#X connect 14 0 43 4;
#X connect 16 0 17 0;
#X connect 17 0 37 0;
#X connect 17 1 43 9;
#X connect 17 2 19 0;
#X connect 18 0 43 8;
#X connect 20 0 37 0;
#X connect 20 1 43 7;
#X connect 20 2 26 0;
#X connect 22 0 20 0;
#X connect 23 0 37 0;
#X connect 23 1 43 11;
#X connect 23 2 28 0;
#X connect 25 0 23 0;
#X connect 27 0 43 6;
#X connect 29 0 43 10;
#X connect 30 0 32 0;
#X connect 32 0 37 0;
#X connect 32 1 43 13;
#X connect 32 2 34 0;
#X connect 33 0 43 12;
#X connect 36 0 6 0;
#X connect 37 0 43 0;
#X connect 39 0 10 0;
#X connect 40 0 43 2;
#X connect 41 0 37 0;
#X connect 41 1 40 0;
#X connect 41 2 14 0;
#X connect 41 3 27 0;
#X connect 41 4 18 0;
#X connect 41 5 29 0;
#X connect 41 6 33 0;
#X connect 42 1 35 0;
#X connect 42 3 38 0;
#X connect 42 5 12 0;
#X connect 42 7 21 0;
#X connect 42 9 15 0;
#X connect 42 11 24 0;
#X connect 42 13 31 0;
#X connect 43 0 2 0;
#X restore 683 157 pd numbercruncher;
#X obj 683 228 iemguts/canvasargs;
#X obj 683 78 iemguts/canvasargs;
#X obj 647 31 loadbang;
#X obj 683 126 list trim;
#X obj 683 103 list;
#X obj 647 55 t b b;
#X msg 647 78 1;
#X obj 683 183 spigot;
#X text 733 177 This spigot is necessary because if one [canvasargs] object feeds the creation argument straight into another it will cause PD to crash., f 49;
#X msg 102 77 0;
#X obj 298 348 throw~ bus-l;
#X obj 390 348 throw~ bus-r;
#X obj 489 395 throw~ bus-1;
#X obj 180 128 else/knob 20 -100 10 0 1 \$0-aux3-knob-s \$0-aux3-knob-r #ff8300 #7c7c7c black 1 0 0 0 1 320 0 0 0.01;
#X text 601 275 Aux Send 2;
#X obj 582 395 throw~ bus-2-l;
#X obj 688 395 throw~ bus-2-r;
#X obj 156 104 tgl 20 1 \$0-aux1-mute-button-s \$0-aux1-mute-button-r empty 0 -10 0 12 #ffffff #ff0400 #000000 0 1;
#X obj 180 104 tgl 20 1 \$0-aux3-mute-button-s \$0-aux3-mute-button-r empty 0 -10 0 12 #ffffff #ff0400 #000000 1 1;
#X obj 132 128 else/knob 20 -100 10 0 1 \$0-aux2-knob-s \$0-aux2-knob-r #9c00ff #7c7c7c black 1 0 0 0 1 320 0 0 0.01;
#X obj 132 104 tgl 20 1 \$0-aux2-mute-button-s \$0-aux2-mute-button-r empty 0 -10 0 12 #ffffff #ff0400 #000000 0 1;
#X obj 103 104 tgl 20 1 \$0-master-mute-button-s \$0-master-mute-button-r empty 0 -10 0 12 #ff0400 #000000 #000000 0 1;
#X obj 298 110 fader-math;
#X obj 384 110 fader-math;
#X obj 294 177 fader-math;
#X obj 380 176 fader-math;
#X obj 490 355 fader-math;
#X obj 584 355 fader-math;
#X obj 687 355 fader-math;
#X msg 137 77 0;
#X msg 172 77 0;
#X msg 207 77 0;
#X floatatom 4 30 5 0 0 0 - - - 0;
#X obj 4 5 r \$0-channel-num-r;
#X obj 4 54 s \$0-channel-num-s;
#N canvas 2220 262 1202 298 osc 0;
#X obj 386 32 route /strip/fader;
#X obj 386 6 receive osc-receive;
#X obj 386 57 route;
#X obj 6 6 r \$0-channel-num-s;
#X obj 386 82 s \$0-fader-r;
#X obj 385 266 send osc-send;
#X obj 385 212 pack f f;
#X msg 385 239 send /strip/fader \$2 \$1;
#X obj 385 184 r \$0-fader-s;
#X obj 566 57 route;
#X obj 565 212 pack f f;
#X msg 565 239 send /strip/mute \$2 \$1;
#X obj 566 32 route /strip/mute;
#X obj 739 57 route;
#X obj 738 212 pack f f;
#X obj 739 32 route /strip/master-mute;
#X obj 739 82 s \$0-master-mute-r;
#X obj 738 184 r \$0-master-mute-s;
#X msg 738 239 send /strip/master-mute \$2 \$1;
#X obj 4 95 inlet;
#X obj 50 95 inlet;
#X obj 4 130 pack f f;
#X obj 193 130 pack f f;
#X msg 4 157 send /strip/meter-l \$2 \$1;
#X msg 193 157 send /strip/meter-r \$2 \$1;
#X obj 960 57 route;
#X obj 959 212 pack f f;
#X msg 959 239 send /strip/gain \$2 \$1;
#X obj 959 184 r \$0-gain-s;
#X obj 960 32 route /strip/gain;
#X obj 960 82 s \$0-gain-r;
#X obj 566 82 s \$0-mute-r;
#X obj 565 184 r \$0-mute-s;
#X connect 0 0 2 0;
#X connect 1 0 0 0;
#X connect 1 0 12 0;
#X connect 1 0 15 0;
#X connect 1 0 29 0;
#X connect 2 0 4 0;
#X connect 3 0 2 1;
#X connect 3 0 6 1;
#X connect 3 0 9 1;
#X connect 3 0 10 1;
#X connect 3 0 13 1;
#X connect 3 0 14 1;
#X connect 3 0 21 1;
#X connect 3 0 22 1;
#X connect 3 0 25 1;
#X connect 3 0 26 1;
#X connect 6 0 7 0;
#X connect 7 0 5 0;
#X connect 8 0 6 0;
#X connect 9 0 31 0;
#X connect 10 0 11 0;
#X connect 11 0 5 0;
#X connect 12 0 9 0;
#X connect 13 0 16 0;
#X connect 14 0 18 0;
#X connect 15 0 13 0;
#X connect 17 0 14 0;
#X connect 18 0 5 0;
#X connect 19 0 21 0;
#X connect 20 0 22 0;
#X connect 21 0 23 0;
#X connect 22 0 24 0;
#X connect 23 0 5 0;
#X connect 24 0 5 0;
#X connect 25 0 30 0;
#X connect 26 0 27 0;
#X connect 27 0 5 0;
#X connect 28 0 26 0;
#X connect 29 0 25 0;
#X connect 32 0 10 0;
#X restore 494 212 pd osc;
#X obj 43 97 knob 50 0 20 0 0 \$0-gain-knob-s \$0-gain-knob-r #dfdfdf #7c7c7c black 1 0 0 0 1 320 0 0 0;
#X text 43 77 Gain;
#X text 488 262 Aux Send 1;
#N canvas 490 187 1140 665 sof-fader 0;
#X obj 100 102 vsl 20 200 -100 12 0 0 empty empty empty 0 -9 0 10 #fcfcfc #000000 #000000 0 1;
#X obj 123 26 inlet;
#X obj 109 455 outlet;
#X obj 167 300 tgl 15 0 empty empty empty 17 7 0 10 #fcfcfc #000000 #000000 0 1;
#X obj 167 266 == 0;
#X obj 398 298 tgl 15 0 empty empty empty 17 7 0 10 #fcfcfc #000000 #000000 0 1;
#X obj 178 150 t f f;
#X obj 13 13 loadbang;
#X obj 21 63 r sof-select-s;
#X floatatom 13 92 5 0 0 0 - - - 0;
#X obj 398 265 == 1;
#X obj 149 77 route 0 1 2 3;
#X obj 179 181 sel 0 1 2 3;
#X obj 560 300 tgl 15 0 empty empty empty 17 7 0 10 #fcfcfc #000000 #000000 0 1;
#X obj 719 300 tgl 15 0 empty empty empty 17 7 0 10 #fcfcfc #000000 #000000 0 1;
#X obj 560 265 == 2;
#X obj 719 265 == 3;
#X obj 212 294 rescale -in 0 20 -100 12;
#X obj 13 455 s \$0-fader-s;
#X obj 196 25 r \$0-fader-r;
#X obj 13 430 change;
#X msg 13 35 1;
#X obj 718 331 sof-logic;
#X obj 564 330 sof-logic;
#X obj 399 327 sof-logic;
#X obj 212 327 sof-logic;
#X obj 213 355 rescale -in -100 12 0 20;
#X msg 213 380 set \$1;
#X obj 584 297 r \$0-aux2-knob-s;
#X obj 564 356 s \$0-aux2-knob-r;
#X obj 421 295 r \$0-aux1-knob-s;
#X obj 399 355 s \$0-aux1-knob-r;
#X obj 749 299 r \$0-aux3-knob-s;
#X obj 718 356 s \$0-aux3-knob-r;
#X obj 212 266 r \$0-gain-knob-s;
#X obj 213 406 s \$0-gain-knob-r;
#X obj 459 384 s \$0-aux1-s;
#X obj 624 385 s \$0-aux2-s;
#X obj 778 386 s \$0-aux3-s;
#X obj 441 267 r \$0-aux1-r;
#X obj 601 267 r \$0-aux2-r;
#X obj 767 270 r \$0-aux3-r;
#X obj 289 213 r \$0-gain-r;
#X obj 335 406 s \$0-gain-s;
#X obj 289 239 rescale -in 0 20 -100 12;
#X obj 123 48 route 0 1 2;
#X obj 181 483 r \$0-master-mute-r;
#X obj 181 542 s \$0-master-mute-s;
#X obj 370 483 r \$0-aux1-mute-r;
#X obj 370 543 s \$0-aux1-mute-s;
#X obj 543 483 r \$0-aux2-mute-r;
#X obj 542 543 s \$0-aux2-mute-s;
#X obj 181 511 sof-logic;
#X obj 181 458 r \$0-master-mute-button-s;
#X obj 181 567 s \$0-master-mute-button-r;
#X obj 370 568 s \$0-aux1-mute-button-r;
#X obj 370 458 r \$0-aux1-mute-button-s;
#X obj 370 512 sof-logic;
#X obj 543 458 r \$0-aux2-mute-button-s;
#X obj 542 568 s \$0-aux2-mute-button-r;
#X obj 46 483 r \$0-mute-button-s;
#X obj 46 542 s \$0-mute-button-r;
#X obj 542 515 sof-logic;
#X obj 713 483 r \$0-aux3-mute-r;
#X obj 712 543 s \$0-aux3-mute-s;
#X obj 713 458 r \$0-aux3-mute-button-s;
#X obj 712 568 s \$0-aux3-mute-button-r;
#X obj 712 513 sof-logic;
#X text 228 145 Sends triggers to the SOF logic to update the controls when a different send is selected.;
#X obj 952 493 r \$0-mute-r;
#X obj 952 521 s \$0-mute-button-r;
#X obj 47 572 change;
#X obj 47 597 s \$0-mute-s;
#X connect 0 0 24 0;
#X connect 0 0 22 0;
#X connect 0 0 23 0;
#X connect 0 0 25 0;
#X connect 1 0 45 0;
#X connect 3 0 25 1;
#X connect 3 0 52 1;
#X connect 4 0 3 0;
#X connect 5 0 24 1;
#X connect 5 0 57 1;
#X connect 6 0 12 0;
#X connect 6 1 4 0;
#X connect 6 1 10 0;
#X connect 6 1 15 0;
#X connect 6 1 16 0;
#X connect 7 0 21 0;
#X connect 8 0 9 0;
#X connect 9 0 6 0;
#X connect 10 0 5 0;
#X connect 11 0 25 3;
#X connect 11 1 24 3;
#X connect 11 2 23 3;
#X connect 11 3 22 3;
#X connect 12 0 25 3;
#X connect 12 0 52 3;
#X connect 12 1 24 3;
#X connect 12 1 57 3;
#X connect 12 2 23 3;
#X connect 12 2 62 3;
#X connect 12 3 22 3;
#X connect 12 3 67 3;
#X connect 13 0 23 1;
#X connect 13 0 62 1;
#X connect 14 0 22 1;
#X connect 14 0 67 1;
#X connect 15 0 13 0;
#X connect 16 0 14 0;
#X connect 17 0 25 2;
#X connect 19 0 0 0;
#X connect 20 0 18 0;
#X connect 20 0 2 0;
#X connect 21 0 9 0;
#X connect 22 0 33 0;
#X connect 22 1 20 0;
#X connect 22 2 0 0;
#X connect 22 3 38 0;
#X connect 23 0 29 0;
#X connect 23 1 20 0;
#X connect 23 2 0 0;
#X connect 23 3 37 0;
#X connect 24 0 31 0;
#X connect 24 1 20 0;
#X connect 24 2 0 0;
#X connect 24 3 36 0;
#X connect 25 1 20 0;
#X connect 25 2 0 0;
#X connect 25 3 26 0;
#X connect 26 0 27 0;
#X connect 26 0 43 0;
#X connect 27 0 35 0;
#X connect 28 0 23 2;
#X connect 30 0 24 2;
#X connect 32 0 22 2;
#X connect 34 0 17 0;
#X connect 39 0 24 3;
#X connect 40 0 23 3;
#X connect 41 0 22 3;
#X connect 42 0 44 0;
#X connect 44 0 25 3;
#X connect 45 0 0 0;
#X connect 45 1 11 0;
#X connect 46 0 52 3;
#X connect 48 0 57 3;
#X connect 50 0 62 3;
#X connect 52 0 54 0;
#X connect 52 1 71 0;
#X connect 52 2 61 0;
#X connect 52 3 47 0;
#X connect 53 0 52 2;
#X connect 56 0 57 2;
#X connect 57 0 55 0;
#X connect 57 1 71 0;
#X connect 57 2 61 0;
#X connect 57 3 49 0;
#X connect 58 0 62 2;
#X connect 60 0 52 0;
#X connect 60 0 57 0;
#X connect 60 0 62 0;
#X connect 60 0 67 0;
#X connect 62 0 59 0;
#X connect 62 1 71 0;
#X connect 62 2 61 0;
#X connect 62 3 51 0;
#X connect 63 0 67 3;
#X connect 65 0 67 2;
#X connect 67 0 66 0;
#X connect 67 1 71 0;
#X connect 67 2 61 0;
#X connect 67 3 64 0;
#X connect 69 0 70 0;
#X connect 71 0 72 0;
#X coords 0 -1 1 1 20 205 2 100 100;
#X restore 103 152 pd sof-fader;
#X obj 450 57 rescale -in 0 1 -100 12;
#X obj 61 394 rescale -in -100 12 0 1;
#X msg 450 82 0 \$1;
#X obj 377 146 r \$0-aux1-s;
#X obj 491 325 r \$0-aux2-s;
#X obj 656 326 r \$0-aux3-s;
#X obj 312 84 r \$0-gain-s;
#X obj 299 60 r \$0-master-mute-s;
#X obj 479 300 r \$0-aux2-mute-s;
#X obj 227 146 r \$0-aux1-mute-s;
#X obj 628 303 r \$0-aux3-mute-s;
#X obj 247 83 print;
#X connect 0 0 34 0;
#X connect 4 0 3 0;
#X connect 4 0 47 0;
#X connect 6 0 5 0;
#X connect 6 0 47 1;
#X connect 7 0 35 0;
#X connect 8 0 52 0;
#X connect 11 0 19 0;
#X connect 13 0 16 0;
#X connect 14 0 17 0;
#X connect 15 0 11 0;
#X connect 16 0 15 0;
#X connect 17 0 18 0;
#X connect 17 1 13 0;
#X connect 18 0 19 1;
#X connect 19 0 12 0;
#X connect 21 0 48 0;
#X connect 34 0 36 0;
#X connect 34 0 39 0;
#X connect 34 0 4 0;
#X connect 35 0 37 0;
#X connect 35 0 40 0;
#X connect 35 0 6 0;
#X connect 36 0 22 0;
#X connect 36 0 38 0;
#X connect 37 0 23 0;
#X connect 37 0 38 0;
#X connect 38 0 24 0;
#X connect 39 0 27 0;
#X connect 40 0 28 0;
#X connect 41 0 31 0;
#X connect 42 0 2 0;
#X connect 43 0 25 0;
#X connect 44 0 46 0;
#X connect 45 0 44 0;
#X connect 51 0 53 0;
#X connect 52 0 54 0;
#X connect 53 0 9 0;
#X connect 54 0 51 0;
#X connect 55 0 36 2;
#X connect 55 0 37 2;
#X connect 56 0 38 2;
#X connect 57 0 39 2;
#X connect 57 0 40 2;
#X connect 58 0 34 2;
#X connect 58 0 35 2;
#X connect 58 0 63 0;
#X connect 59 0 34 1;
#X connect 59 0 35 1;
#X connect 59 0 63 0;
#X connect 60 0 38 1;
#X connect 61 0 36 1;
#X connect 61 0 37 1;
#X connect 62 0 39 1;
#X connect 62 0 40 1;
#X coords 0 -1 1 1 110 262 2 100 100;
