#N canvas 676 287 836 538 12;
#X obj 21 207 *~;
#X obj 105 118 vsl 20 200 0 1 0 1 \$0-fader-s \$0-fader-r Level 0 -9 0 12 #fcfcfc #000000 #000000 19900 1;
#X obj 191 120 hsl 170 20 0 127 0 1 \$0-frequency-s \$0-frequency-r Frequency -2 -10 0 12 #fcfcfc #000000 #000000 5200 1;
#X obj 198 72 mtof;
#X floatatom 368 121 5 0 0 0 - - - 0;
#X obj 129 116 vu-meter;
#X obj 17 16 inlet~;
#X obj 21 257 outlet~;
#X obj 191 158 hsl 170 20 0 10 0 1 \$0-q-s \$0-q-r Q -2 -10 0 12 #fcfcfc #000000 #000000 1600 1;
#N canvas 944 459 645 393 numbercruncher 0;
#X obj 87 10 inlet;
#X obj 269 255 loadbang;
#X obj 101 350 outlet;
#X text 227 82 Sends creation argument list to the GOP;
#X text 292 211 Receives GOP values and sends them on again to the saver;
#X obj 269 280 t b b b;
#X obj 277 225 t b f f;
#X obj 43 226 t b f f;
#X floatatom 500 317 5 0 0 0 - - - 0;
#X floatatom 415 317 5 0 0 0 - - - 0;
#X text 365 337 Atoms can be used to control whatever you want here!;
#X obj 43 140 s \$0-fader-r;
#X obj 43 197 r \$0-fader-s;
#X obj 87 44 unpack s f s f s f;
#X obj 149 227 t b f f;
#X obj 101 312 pack s f s f s f;
#X floatatom 456 317 5 0 0 0 - - - 0;
#X msg 43 273 symbol fader;
#X obj 150 139 s \$0-frequency-r;
#X obj 149 196 r \$0-frequency-s;
#X obj 273 139 s \$0-q-r;
#X obj 277 196 r \$0-q-s;
#X msg 288 332 symbol frequency;
#X msg 308 306 symbol q;
#X connect 0 0 13 0;
#X connect 1 0 5 0;
#X connect 5 0 17 0;
#X connect 5 1 22 0;
#X connect 5 2 23 0;
#X connect 6 0 17 0;
#X connect 6 1 15 5;
#X connect 6 2 8 0;
#X connect 7 0 17 0;
#X connect 7 1 15 1;
#X connect 7 2 9 0;
#X connect 12 0 7 0;
#X connect 13 1 11 0;
#X connect 13 3 18 0;
#X connect 13 5 20 0;
#X connect 14 0 17 0;
#X connect 14 1 15 3;
#X connect 14 2 16 0;
#X connect 15 0 2 0;
#X connect 17 0 15 0;
#X connect 19 0 14 0;
#X connect 21 0 6 0;
#X connect 22 0 15 2;
#X connect 23 0 15 4;
#X restore 458 208 pd numbercruncher;
#X obj 458 279 iemguts/canvasargs;
#X obj 458 129 iemguts/canvasargs;
#X obj 431 81 loadbang;
#X obj 458 177 list trim;
#X obj 458 154 list;
#X obj 431 105 t b b;
#X msg 431 128 1;
#X obj 458 234 spigot;
#X text 499 227 This spigot is necessary because if one [canvasargs] object feeds the creation argument straight into another it will cause PD to crash.;
#X floatatom 368 159 5 0 0 0 - - - 0;
#X obj 105 357 send osc-send;
#X msg 105 330 send /subwoofer/fader \$1;
#X msg 287 330 send /subwoofer/frequency \$1;
#X msg 288 356 send /subwoofer/q \$1;
#X obj 110 47 mrpeach/routeOSC /subwoofer/fader /subwoofer/frequency /subwoofer/q, f 67;
#X obj 110 20 receive osc-receive;
#X obj 32 148 pack 0 50;
#X obj 32 173 line~;
#X obj 16 48 iemlib/lp2~;
#X obj 599 17 inlet~;
#X obj 689 17 inlet~;
#X obj 600 49 iemlib/hp2~;
#X obj 601 102 outlet~;
#X obj 691 103 outlet~;
#X obj 690 49 iemlib/hp2~;
#X obj 690 76 iemlib/hp2~;
#X obj 600 74 iemlib/hp2~;
#X obj 16 73 iemlib/lp2~;
#X obj 21 232 *~ -1;
#X connect 0 0 5 0;
#X connect 0 0 38 0;
#X connect 1 0 21 0;
#X connect 1 0 26 0;
#X connect 2 0 3 0;
#X connect 2 0 22 0;
#X connect 3 0 4 0;
#X connect 4 0 28 1;
#X connect 4 0 31 1;
#X connect 4 0 34 1;
#X connect 4 0 35 1;
#X connect 4 0 36 1;
#X connect 4 0 37 1;
#X connect 6 0 28 0;
#X connect 8 0 19 0;
#X connect 8 0 23 0;
#X connect 9 0 17 0;
#X connect 11 0 14 0;
#X connect 12 0 15 0;
#X connect 13 0 9 0;
#X connect 14 0 13 0;
#X connect 15 0 16 0;
#X connect 15 1 11 0;
#X connect 16 0 17 1;
#X connect 17 0 10 0;
#X connect 19 0 28 2;
#X connect 19 0 31 2;
#X connect 19 0 34 2;
#X connect 19 0 35 2;
#X connect 19 0 36 2;
#X connect 19 0 37 2;
#X connect 21 0 20 0;
#X connect 22 0 20 0;
#X connect 23 0 20 0;
#X connect 24 0 1 0;
#X connect 24 1 2 0;
#X connect 24 2 8 0;
#X connect 25 0 24 0;
#X connect 26 0 27 0;
#X connect 27 0 0 1;
#X connect 28 0 37 0;
#X connect 29 0 31 0;
#X connect 30 0 34 0;
#X connect 31 0 36 0;
#X connect 34 0 35 0;
#X connect 35 0 33 0;
#X connect 36 0 32 0;
#X connect 37 0 0 0;
#X connect 38 0 7 0;
#X coords 0 -1 1 1 310 225 2 100 100;
