#N canvas 92 135 450 300 12;
#X floatatom 129 18 5 0 0 0 - - - 0;
#X obj 35 30 vsl 19 200 0 127 0 0 empty empty empty 0 -9 0 12 #fcfcfc #000000 #000000 0 1;
#X floatatom 18 259 54 0 0 0 - - - 0;
#X obj 59 30 vu 19 200 empty empty -1 -10 0 12 #404040 #000000 1 0;
#X obj 106 230 else/rescale -exp 0.33 -100 12;
#X obj 129 51 else/rescale -exp -0.33 -in -100 12 0 127;
#X connect 0 0 5 0;
#X connect 1 0 4 0;
#X connect 4 0 2 0;
#X connect 5 0 1 0;
