#N canvas 1196 268 450 300 12;
#X obj 201 120 *~;
#X obj 201 95 mute-switch;
#X floatatom 8 112 5 0 0 0 - - - 0;
#X obj 8 87 dbtorms;
#X obj 8 61 + 100;
#X obj 70 87 pack 0 50;
#X obj 70 112 line~;
#X text 6 37 Fader Math;
#X obj 9 12 inlet~;
#X obj 66 12 inlet;
#X obj 113 12 inlet;
#X obj 7 154 outlet~;
#X connect 0 0 11 0;
#X connect 1 0 0 0;
#X connect 3 0 2 0;
#X connect 3 0 5 0;
#X connect 4 0 3 0;
#X connect 5 0 6 0;
#X connect 6 0 0 1;
#X connect 8 0 1 0;
#X connect 9 0 1 1;
#X connect 10 0 4 0;
