#N canvas 1149 380 450 300 12;
#X obj 9 44 mute-switch;
#X obj 9 12 inlet~;
#X obj 66 12 inlet;
#X obj 113 12 inlet;
#X obj 9 102 outlet~;
#X obj 9 72 volume-math;
#X connect 0 0 5 0;
#X connect 1 0 0 0;
#X connect 2 0 0 1;
#X connect 3 0 5 1;
#X connect 5 0 4 0;
