#N canvas 865 403 926 392 12;
#X obj 10 26 inlet;
#X obj 10 128 outlet;
#X obj 72 26 inlet;
#X obj 70 128 outlet;
#X text 9 3 Inlet;
#X text 9 154 Outlet;
#X text 71 4 From Fader;
#X text 69 154 To Fader;
#X obj 10 98 expr log(($f1*($f2-1))+1)/log($f2);
#X obj 280 98 expr (pow($f2 \, $f1)-1)/($f2-1);
#X msg 543 60 0.1;
#X text 587 61 P constant;
#X text 588 109 a value;
#X floatatom 543 109 5 0 0 0 - - - 0;
#X obj 543 85 expr pow((1-(1/$f1)) \, 2);
#X obj 543 13 loadbang;
#X obj 10 49 f;
#X obj 543 37 t b b;
#X text 43 50 Needed so values can be sent before loadbang;
#X text 590 38 Set up expression before attempting update;
#X connect 0 0 16 0;
#X connect 2 0 9 0;
#X connect 8 0 3 0;
#X connect 9 0 1 0;
#X connect 10 0 14 0;
#X connect 13 0 9 1;
#X connect 13 0 8 1;
#X connect 14 0 13 0;
#X connect 15 0 17 0;
#X connect 16 0 8 0;
#X connect 17 0 16 0;
#X connect 17 1 10 0;
