#N canvas 735 432 450 300 12;
#X obj 6 51 == 0;
#X obj 6 76 pack 0 50;
#X obj 6 101 line~;
#X text 6 31 Anti-click thing;
#X obj 104 140 *~;
#X obj 104 165 outlet~;
#X obj 160 9 inlet;
#X obj 103 9 inlet~;
#X connect 0 0 1 0;
#X connect 1 0 2 0;
#X connect 2 0 4 1;
#X connect 4 0 5 0;
#X connect 6 0 0 0;
#X connect 7 0 4 0;
