#N canvas 1050 626 450 300 12;
#X obj 20 165 osc-param;
#X obj 20 36 inlet;
#X obj 20 191 outlet;
#X obj 88 36 inlet;
#X obj 141 36 inlet;
#X obj 141 62 symbol \$1;
#X obj 201 36 loadbang;
#X obj 88 110 pack f s;
#X msg 88 134 /strip/\$1/\$2;
#X obj 141 86 t b s;
#X connect 0 0 2 0;
#X connect 1 0 0 0;
#X connect 3 0 5 0;
#X connect 4 0 7 0;
#X connect 5 0 9 0;
#X connect 6 0 5 0;
#X connect 7 0 8 0;
#X connect 8 0 0 1;
#X connect 9 0 7 0;
#X connect 9 1 7 1;
