#N canvas 796 401 528 300 12;
#X obj 225 86 outlet;
#X obj 114 37 inlet;
#X text 265 204 Sends and recieves OSC messages from the global bus and filters them according to the canvas arguments;
#X obj 15 59 symbol \$1;
#X text 13 10 OSC Address;
#X msg 114 87 send \$2 \$1;
#X obj 225 37 r osc-receive;
#X obj 114 112 s osc-send;
#X obj 114 62 pack f s;
#X obj 15 32 loadbang;
#X obj 166 37 inlet;
#X obj 225 62 route symbol;
#X connect 1 0 8 0;
#X connect 3 0 8 1;
#X connect 3 0 11 1;
#X connect 5 0 7 0;
#X connect 6 0 11 0;
#X connect 8 0 5 0;
#X connect 9 0 3 0;
#X connect 10 0 3 0;
#X connect 11 0 0 0;
