#N canvas 302 653 857 481 12;
#X obj 100 102 vsl 20 200 0 117 0 0 empty empty empty 0 -9 0 12 #fcfcfc #000000 #000000 0 1;
#X obj 139 13 loadbang;
#X msg 139 39 0 0 6.66667 13.3333 20 26.6667 33.3333 40 41.6667 43.3333 45 46.6667 48.3333 50 51.6667 53.3333 55 56.6667 58.3333 60 61.6667 63.3333 65 66.6667 68.3333 70 70.8333 71.6667 72.5 73.3333 74.1667 75 75.8333 76.6667 77.5 78.3333 79.1667 80 80.6667 81.3333 82 82.6667 83.3333 84 84.6667 85.3333 86 86.6667 87.3333 88 88.5 89 89.5 90 90.5 91 91.5 92 92.5 93 93.5 94 94.3333 94.6667 95 95.3333 95.6667 96 96.3333 96.6667 97 97.3333 97.6667 98 98.1667 98.3333 98.5 98.6667 98.8333 99 99.1667 99.3333 99.5 99.6667 99.8333 100 100.167 100.333 100.5 100.667 100.833 101 101.167 101.333 101.5 101.667 101.833 102 102.333 102.667 103 103.333 103.667 104 104.333 104.667 105 105.333 105.667 106 106.5 107 107.5 108 108.5 109 110 111 112 113 114 115 116 117 118 119 120 121 122 123 124 125 126 127 128 129 130 131 132 133 134 135 136 137 138 139 140 141 142 143 144;
#X obj 139 260 s \$0-fader-scale;
#N canvas 415 67 671 525 tabread2 0;
#X text 355 178 y - y1 = (x - x1)*(y2 - y1)/(x2 - x1);
#X text 383 196 x2 = x1 + 1;
#X text 390 215 y = y1 + (x - x1)*(y2 - y1);
#X text 323 233 y2;
#X text 355 258 y1;
#X obj 133 205 + 1;
#X obj 133 180 t f f;
#X obj 101 32 inlet;
#X obj 101 113 t f f;
#X obj 133 139 int;
#X obj 101 180 -;
#X obj 101 90 max 0;
#X text 45 181 x - x1;
#X text 292 180 x1;
#X obj 101 290 expr $f3 + $f1*($f2 - $f3), f 11;
#X obj 101 345 outlet;
#X text 27 8 read numbers from a table with 2-point interpolation;
#X obj 133 233 tabread \$0-fader-scale;
#X obj 165 259 tabread \$0-fader-scale;
#X connect 5 0 17 0;
#X connect 6 0 5 0;
#X connect 6 1 18 0;
#X connect 7 0 11 0;
#X connect 8 0 10 0;
#X connect 8 1 9 0;
#X connect 9 0 6 0;
#X connect 9 0 10 1;
#X connect 10 0 14 0;
#X connect 11 0 8 0;
#X connect 14 0 15 0;
#X connect 17 0 14 1;
#X connect 18 0 14 2;
#X restore 42 322 pd tabread2;
#X floatatom 42 371 5 0 0 0 - - - 0;
#X obj 42 346 - 100;
#X obj 609 93 tabwrite \$0-fader-scale-inverse;
#N canvas 330 454 519 278 (subpatch) 0;
#X array \$0-fader-scale-inverse 150 float 1;
#A 0 0 0.5 1 2.14285 2.14286 2.14286 1 2.14285 2.14285 2.14285 2.14285 2.14285 2.14285 2 3.21428 3.21428 3.21428 3.21428 3.21428 4.28572 3 4.28571 4.28571 4.28571 4.28571 4.28571 4 4.28571 4.28571 4.28571 4.28571 4.28571 5.35713 5 5.35713 5.35713 4.28571 5.35714 6.42857 6.42857 6 7 8.57142 8 9.64285 9 10 10.7143 11 11.7857 12 13 12.8571 14 13.9286 15 16 15 17 16.0714 18 19 18.2143 20 19.2857 21 22 21.4285 23 23.5714 25 26 27 28 29 31 32 33 34 35 37 38 40 41 43 44 46 47 49 51 53 55 57 59 62 65 68 71 77 83 89 95 98 101 104 107 109 111 113 114 115 116 117 118 119 120 121 122 123 124 125 126 127 128 129 130 131 132 133 134 135 136 137 138 139 140 141 142 143 144 145 146 147 148 149 148.929 148.929 148.929 148.929 150;
#X coords 0 0 149 150 200 140 1 0 0;
#X restore 611 134 graph;
#N canvas 295 338 450 278 (subpatch) 0;
#X array \$0-fader-scale 150 float 2;
#X coords 0 0 150 150 200 140 1 0 0;
#X restore 139 309 graph;
#N canvas 542 63 671 525 tabread2 1;
#X text 355 178 y - y1 = (x - x1)*(y2 - y1)/(x2 - x1);
#X text 383 196 x2 = x1 + 1;
#X text 390 215 y = y1 + (x - x1)*(y2 - y1);
#X text 323 233 y2;
#X text 355 258 y1;
#X obj 133 205 + 1;
#X obj 133 180 t f f;
#X obj 101 32 inlet;
#X obj 101 113 t f f;
#X obj 133 139 int;
#X obj 101 180 -;
#X obj 101 90 max 0;
#X text 45 181 x - x1;
#X text 292 180 x1;
#X obj 101 290 expr $f3 + $f1*($f2 - $f3), f 11;
#X obj 101 345 outlet;
#X text 27 8 read numbers from a table with 2-point interpolation;
#X obj 133 233 tabread \$0-fader-scale;
#X obj 165 259 tabread \$0-fader-scale;
#X connect 5 0 17 0;
#X connect 6 0 5 0;
#X connect 6 1 18 0;
#X connect 7 0 11 0;
#X connect 8 0 10 0;
#X connect 8 1 9 0;
#X connect 9 0 6 0;
#X connect 9 0 10 1;
#X connect 10 0 14 0;
#X connect 11 0 8 0;
#X connect 14 0 15 0;
#X connect 17 0 14 1;
#X connect 18 0 14 2;
#X restore 625 65 pd tabread2;
#N canvas 415 67 671 525 tabread2-inverse 0;
#X text 355 178 y - y1 = (x - x1)*(y2 - y1)/(x2 - x1);
#X text 383 196 x2 = x1 + 1;
#X text 390 215 y = y1 + (x - x1)*(y2 - y1);
#X text 355 231 y2;
#X text 387 256 y1;
#X obj 133 205 + 1;
#X obj 133 180 t f f;
#X obj 101 32 inlet;
#X obj 101 113 t f f;
#X obj 133 139 int;
#X obj 101 180 -;
#X obj 101 90 max 0;
#X text 45 181 x - x1;
#X text 292 180 x1;
#X obj 101 290 expr $f3 + $f1*($f2 - $f3), f 11;
#X obj 101 345 outlet;
#X text 27 8 read numbers from a table with 2-point interpolation;
#X obj 133 233 tabread \$0-fader-scale-inverse;
#X obj 165 259 tabread \$0-fader-scale-inverse;
#X connect 5 0 17 0;
#X connect 6 0 5 0;
#X connect 6 1 18 0;
#X connect 7 0 11 0;
#X connect 8 0 10 0;
#X connect 8 1 9 0;
#X connect 9 0 6 0;
#X connect 9 0 10 1;
#X connect 10 0 14 0;
#X connect 11 0 8 0;
#X connect 14 0 15 0;
#X connect 17 0 14 1;
#X connect 18 0 14 2;
#X restore 444 337 pd tabread2-inverse;
#X floatatom 444 288 5 0 0 0 - - - 0;
#X obj 444 312 + 100;
#X obj 476 390 hsl 162 19 -100 12 0 0 empty empty empty -2 -10 0 12 #fcfcfc #000000 #000000 0 1;
#X obj 476 414 hsl 162 19 -100 12 0 0 empty empty empty -2 -10 0 12 #fcfcfc #000000 #000000 0 1;
#X obj 648 13 t b;
#X obj 743 63 print;
#X msg 743 38 \$1 \$2;
#X obj 743 13 join;
#X obj 609 38 else/loop 150;
#X floatatom 437 367 5 0 0 0 - - - 0;
#X connect 0 0 4 0;
#X connect 1 0 2 0;
#X connect 2 0 3 0;
#X connect 2 0 16 0;
#X connect 4 0 6 0;
#X connect 5 0 15 0;
#X connect 6 0 5 0;
#X connect 10 0 7 1;
#X connect 10 0 19 1;
#X connect 11 0 0 0;
#X connect 11 0 21 0;
#X connect 12 0 13 0;
#X connect 13 0 11 0;
#X connect 14 0 12 0;
#X connect 16 0 20 0;
#X connect 18 0 17 0;
#X connect 19 0 18 0;
#X connect 20 0 10 0;
#X connect 20 0 7 0;
#X connect 20 0 19 0;
#X coords 0 -1 1 1 20 205 1 100 100;
