#N canvas 699 267 1051 491 12;
#X obj 100 102 vsl 20 200 0 1 0 0 empty empty empty 0 -9 0 12 #fcfcfc #000000 #000000 0 1;
#X floatatom 69 44 5 0 0 0 - - - 0;
#X obj 103 381 hsl 162 19 0 1 0 0 empty empty empty -2 -10 0 12 #fcfcfc #000000 #000000 0 1;
#X obj 103 405 hsl 162 19 0 1 0 0 empty empty empty -2 -10 0 12 #fcfcfc #000000 #000000 0 1;
#X obj 21 15 inlet;
#X obj 17 406 outlet;
#X msg 237 214 set \$1;
#X floatatom 17 382 5 0 0 0 - - - 0;
#X floatatom 148 281 5 0 0 0 - - - 0;
#X obj 17 278 v \$0-out;
#X obj 69 15 route set bang;
#X text 181 11 Takes in and outputs a range of [0 \, 1];
#X obj 111 43 t b f;
#X obj 149 184 fader-scaling;
#X connect 0 0 8 0;
#X connect 0 0 13 1;
#X connect 1 0 9 0;
#X connect 1 0 13 0;
#X connect 2 0 12 0;
#X connect 4 0 10 0;
#X connect 6 0 0 0;
#X connect 7 0 5 0;
#X connect 7 0 3 0;
#X connect 9 0 7 0;
#X connect 10 0 1 0;
#X connect 10 1 9 0;
#X connect 10 2 12 0;
#X connect 12 0 9 0;
#X connect 12 1 1 0;
#X connect 13 0 9 0;
#X connect 13 0 7 0;
#X connect 13 1 6 0;
#X coords 0 -1 1 1 20 205 2 100 100;
