#N canvas 748 139 450 300 12;
#X obj 27 38 scaled-fader;
#X msg 27 12 set 0;
#X msg 84 12 0;
#X obj 187 83 knob 50 0 1 0 0 empty empty #dfdfdf #7c7c7c black 1 0 0 0 1 320 0 0 0;
#X obj 78 73 rmstodb;
#X floatatom 78 99 5 0 0 0 - - - 0;
#X floatatom 27 250 5 0 0 0 - - - 0;
#X obj 159 249 dac~;
#X obj 142 214 *~ 0;
#X obj 140 181 osc~ 440;
#X obj 197 40 fader-scaling;
#X obj 273 73 print knob;
#X obj 75 251 print fader;
#X msg 126 12 0.5;
#X connect 0 0 4 0;
#X connect 0 0 6 0;
#X connect 0 0 8 1;
#X connect 0 0 12 0;
#X connect 1 0 0 0;
#X connect 1 0 10 0;
#X connect 2 0 0 0;
#X connect 2 0 10 0;
#X connect 3 0 10 1;
#X connect 4 0 5 0;
#X connect 8 0 7 1;
#X connect 8 0 7 0;
#X connect 9 0 8 0;
#X connect 10 0 11 0;
#X connect 10 1 3 0;
#X connect 13 0 0 0;
#X connect 13 0 10 0;
