#N canvas 979 412 876 491 12;
#X obj 100 102 vsl 20 200 0 127 0 0 empty empty empty 0 -9 0 12 #fcfcfc #000000 #000000 0 1;
#X floatatom 100 372 5 0 0 0 - - - 0;
#X floatatom 69 44 5 0 0 0 - - - 0;
#X obj 476 390 hsl 162 19 -100 12 0 0 empty empty empty -2 -10 0 12 #fcfcfc #000000 #000000 0 1;
#X obj 476 414 hsl 162 19 -100 12 0 0 empty empty empty -2 -10 0 12 #fcfcfc #000000 #000000 0 1;
#X obj 21 15 inlet;
#X obj 17 406 outlet;
#X obj 111 43 t b;
#X msg 139 156 set \$1;
#X text 181 11 Takes in and outputs a range of [-100 \, 12];
#X obj 100 346 rescale -in 0 127 -100 12;
#X msg 358 129 2.71828;
#X obj 358 100 loadbang;
#X obj 139 104 rescale -in -100 12 0 127;
#X floatatom 17 382 5 0 0 0 - - - 0;
#X floatatom 148 281 5 0 0 0 - - - 0;
#X floatatom 292 377 5 0 0 0 - - - 0;
#X obj 100 319 expr pow($f2 \, ($f1*log($f3))/($f4*log($f2)));
#X obj 139 130 expr ($f3*log($f1))/log($f2);
#X text 422 129 Fader scale exponent The value of this doesn't change anything as long as it's not negative or 1;
#X msg 358 159 127;
#X msg 395 159 127;
#X obj 17 278 v \$0-out;
#X obj 139 79 f;
#X text 170 79 Needed so values can be sent before loadbang;
#X obj 69 15 route set bang;
#X connect 0 0 15 0;
#X connect 0 0 17 0;
#X connect 1 0 14 0;
#X connect 2 0 22 0;
#X connect 2 0 23 0;
#X connect 3 0 2 0;
#X connect 5 0 25 0;
#X connect 7 0 22 0;
#X connect 8 0 0 0;
#X connect 10 0 1 0;
#X connect 11 0 17 1;
#X connect 12 0 11 0;
#X connect 12 0 20 0;
#X connect 12 0 21 0;
#X connect 12 0 23 0;
#X connect 13 0 18 0;
#X connect 14 0 6 0;
#X connect 14 0 4 0;
#X connect 17 0 10 0;
#X connect 17 0 16 0;
#X connect 18 0 8 0;
#X connect 20 0 18 1;
#X connect 20 0 17 2;
#X connect 21 0 18 2;
#X connect 21 0 17 3;
#X connect 22 0 14 0;
#X connect 23 0 13 0;
#X connect 25 0 2 0;
#X connect 25 1 22 0;
#X connect 25 2 7 0;
#X connect 25 2 2 0;
#X coords 0 -1 1 1 20 205 2 100 100;
