#N canvas 1418 659 450 300 12;
#X obj 15 65 spigot 0;
#X floatatom 68 122 5 0 0 0 - - - 0;
#X obj 116 64 t b;
#X obj 68 99 v \$0-value;
#X obj 15 9 inlet;
#X obj 68 10 inlet;
#X obj 116 10 inlet;
#X obj 68 148 outlet;
#X obj 122 175 outlet;
#X msg 122 148 set \$1;
#X obj 161 10 inlet;
#X obj 15 124 outlet;
#X obj 116 36 change;
#X msg 15 99 set \$1;
#X connect 0 0 3 0;
#X connect 0 0 13 0;
#X connect 1 0 7 0;
#X connect 1 0 9 0;
#X connect 2 0 0 0;
#X connect 3 0 1 0;
#X connect 4 0 0 0;
#X connect 5 0 0 1;
#X connect 6 0 12 0;
#X connect 9 0 8 0;
#X connect 10 0 3 0;
#X connect 12 0 3 0;
#X connect 12 0 2 0;
#X connect 13 0 11 0;
