#N canvas 1238 440 450 300 12;
#X obj 9 93 spigot 0;
#X floatatom 62 150 5 0 0 0 - - - 0;
#X obj 110 92 t b;
#X obj 62 127 v \$0-value;
#X obj 9 37 inlet;
#X obj 62 38 inlet;
#X obj 110 38 inlet;
#X obj 62 176 outlet;
#X obj 116 203 outlet;
#X msg 116 176 set \$1;
#X obj 155 38 inlet;
#X obj 9 152 outlet;
#X obj 110 64 change;
#X msg 9 127 set \$1;
#X obj 175 203 outlet;
#X floatatom 175 176 5 0 0 0 - - - 0;
#X text 8 3 From fader;
#X text 57 17 SOF select;
#X text 112 2 From send knob;
#X text 156 18 External Input;
#X connect 0 0 3 0;
#X connect 0 0 13 0;
#X connect 0 0 15 0;
#X connect 1 0 7 0;
#X connect 1 0 9 0;
#X connect 2 0 0 0;
#X connect 3 0 1 0;
#X connect 4 0 0 0;
#X connect 5 0 0 1;
#X connect 6 0 12 0;
#X connect 9 0 8 0;
#X connect 10 0 3 0;
#X connect 12 0 3 0;
#X connect 12 0 2 0;
#X connect 13 0 11 0;
#X connect 15 0 14 0;
