#N canvas 371 238 414 327 12;
#X obj 9 93 spigot 0;
#X floatatom 109 151 5 0 0 0 - - - 0;
#X obj 110 92 t b;
#X obj 109 128 v \$0-value;
#X obj 9 37 inlet;
#X obj 62 38 inlet;
#X obj 110 38 inlet;
#X obj 109 206 outlet;
#X obj 163 248 outlet;
#X msg 163 206 set \$1;
#X obj 155 38 inlet;
#X obj 9 173 outlet;
#X obj 110 64 change;
#X msg 9 148 set \$1;
#X obj 228 206 outlet;
#X floatatom 228 179 5 0 0 0 - - - 0;
#X text 8 3 From fader;
#X text 57 17 SOF select;
#X text 112 2 From send knob;
#X text 156 18 External Input;
#X obj 155 91 t b;
#X text 163 268 To Fader;
#X obj 109 179 spigot 0;
#X text 40 227 Fader Position Output;
#X text 6 193 To Send Knob;
#X text 217 242 External Output;
#X obj 9 122 route bang;
#X obj 23 65 t b;
#X connect 0 0 15 0;
#X connect 0 0 3 0;
#X connect 0 0 26 0;
#X connect 1 0 22 0;
#X connect 2 0 0 0;
#X connect 3 0 1 0;
#X connect 4 0 0 0;
#X connect 4 0 27 0;
#X connect 5 0 0 1;
#X connect 5 0 22 1;
#X connect 6 0 12 0;
#X connect 9 0 8 0;
#X connect 10 0 3 0;
#X connect 10 0 20 0;
#X connect 10 0 15 0;
#X connect 10 0 26 0;
#X connect 12 0 3 0;
#X connect 12 0 2 0;
#X connect 12 0 15 0;
#X connect 13 0 11 0;
#X connect 15 0 14 0;
#X connect 20 0 3 0;
#X connect 22 0 9 0;
#X connect 22 0 7 0;
#X connect 26 1 13 0;
#X connect 27 0 0 0;
