#N canvas 1013 464 719 492 10;
#X obj 100 102 vsl 20 200 -100 12 0 0 empty empty empty 0 -9 0 10 #fcfcfc #000000 #000000 0 1;
#X obj 123 26 inlet;
#X obj 344 449 outlet;
#X obj 109 455 outlet;
#X obj 151 295 tgl 15 0 empty empty empty 17 7 0 10 #fcfcfc #000000 #000000 0 1;
#X obj 150 266 == 0;
#X obj 385 294 tgl 15 0 empty empty empty 17 7 0 10 #fcfcfc #000000 #000000 0 1;
#X obj 109 325 spigot 0;
#X obj 343 322 spigot 0;
#X obj 180 382 v \$0-2sta;
#X obj 391 357 v \$0-2stb;
#X msg 391 399 set \$1;
#X msg 180 428 set \$1;
#X obj 190 147 t f f;
#X floatatom 180 404 5 0 0 0 - - - 0;
#X floatatom 391 379 5 0 0 0 - - - 0;
#X obj 123 48 route 0 1;
#X obj 13 13 loadbang;
#X msg 13 35 0;
#X obj 21 63 r sof-select-s;
#X floatatom 13 92 5 0 0 0 - - - 0;
#X obj 385 259 == 1;
#X obj 149 77 route 0 1 2 3;
#X obj 190 180 sel 0 1 2 3;
#X obj 460 449 outlet;
#X obj 501 294 tgl 15 0 empty empty empty 17 7 0 10 #fcfcfc #000000 #000000 0 1;
#X obj 459 322 spigot 0;
#X msg 507 399 set \$1;
#X floatatom 507 379 5 0 0 0 - - - 0;
#X obj 576 449 outlet;
#X obj 617 294 tgl 15 0 empty empty empty 17 7 0 10 #fcfcfc #000000 #000000 0 1;
#X obj 575 322 spigot 0;
#X msg 623 399 set \$1;
#X floatatom 623 379 5 0 0 0 - - - 0;
#X obj 501 259 == 2;
#X obj 617 259 == 3;
#X obj 507 357 v \$0-2stc;
#X obj 623 357 v \$0-2std;
#X obj 175 325 r \$0-gain-s;
#X obj 408 280 r \$0-aux1-s;
#X obj 525 302 r \$0-aux2-s;
#X obj 634 321 r \$0-aux3-s;
#X obj 176 453 rescale -in 0 20 -100 12;
#X obj 176 352 rescale -in -100 12 0 20;
#X connect 0 0 7 0;
#X connect 0 0 8 0;
#X connect 0 0 26 0;
#X connect 0 0 31 0;
#X connect 1 0 16 0;
#X connect 4 0 7 1;
#X connect 5 0 4 0;
#X connect 6 0 8 1;
#X connect 7 0 3 0;
#X connect 7 0 43 0;
#X connect 8 0 10 0;
#X connect 8 0 2 0;
#X connect 9 0 14 0;
#X connect 10 0 15 0;
#X connect 11 0 0 0;
#X connect 12 0 42 0;
#X connect 13 0 23 0;
#X connect 13 1 5 0;
#X connect 13 1 21 0;
#X connect 13 1 34 0;
#X connect 13 1 35 0;
#X connect 14 0 12 0;
#X connect 15 0 11 0;
#X connect 16 0 0 0;
#X connect 16 1 22 0;
#X connect 17 0 18 0;
#X connect 18 0 20 0;
#X connect 19 0 20 0;
#X connect 20 0 13 0;
#X connect 21 0 6 0;
#X connect 22 0 9 0;
#X connect 22 1 10 0;
#X connect 22 2 36 0;
#X connect 22 3 37 0;
#X connect 23 0 9 0;
#X connect 23 1 10 0;
#X connect 23 2 36 0;
#X connect 23 3 37 0;
#X connect 25 0 26 1;
#X connect 26 0 24 0;
#X connect 26 0 36 0;
#X connect 27 0 0 0;
#X connect 28 0 27 0;
#X connect 30 0 31 1;
#X connect 31 0 29 0;
#X connect 31 0 37 0;
#X connect 32 0 0 0;
#X connect 33 0 32 0;
#X connect 34 0 25 0;
#X connect 35 0 30 0;
#X connect 36 0 28 0;
#X connect 37 0 33 0;
#X connect 38 0 9 0;
#X connect 39 0 10 0;
#X connect 40 0 36 0;
#X connect 41 0 37 0;
#X connect 42 0 0 0;
#X connect 43 0 9 0;
#X coords 0 -1 1 1 20 205 2 100 100;
