#N canvas 578 382 450 300 12;
#X obj 11 128 *~;
#X floatatom 88 34 5 0 0 0 - - - 0;
#X obj 29 70 pack 0 50;
#X obj 29 95 line~;
#X obj 11 8 inlet~;
#X obj 88 6 inlet;
#X obj 10 157 outlet~;
#X connect 0 0 6 0;
#X connect 1 0 2 0;
#X connect 2 0 3 0;
#X connect 3 0 0 1;
#X connect 4 0 0 0;
#X connect 5 0 1 0;
