#N canvas 2833 576 450 300 12;
#X obj 13 40 vsl 20 200 0 1 0 1 empty empty empty 0 -9 0 12 #fcfcfc #000000 #000000 19900 1;
#X obj 41 38 vu-meter;
#X obj 114 9 inlet~;
#X obj 114 65 *~;
#X obj 13 14 tgl 20 1 empty empty empty 0 -10 0 12 #ff0400 #000000 #000000 0 1;
#X obj 114 37 *~;
#X obj 114 90 outlet~;
#X obj 168 9 == 0;
#X obj 172 90 outlet~;
#X obj 229 90 outlet~;
#X obj 42 14 else/knob 20 0 1 0 1 empty empty #dfdfdf #7c7c7c black 1 0 0 0 1 320 0 0 0;
#X obj 229 65 *~ 1;
#X connect 0 0 3 1;
#X connect 2 0 1 0;
#X connect 2 0 5 0;
#X connect 3 0 6 0;
#X connect 3 0 8 0;
#X connect 3 0 11 0;
#X connect 4 0 7 0;
#X connect 5 0 3 0;
#X connect 7 0 5 1;
#X connect 10 0 11 1;
#X connect 11 0 9 0;
#X coords 0 -1 1 1 85 236 2 10 10;
