#N canvas 2110 286 1589 654 12;
#X obj 103 129 vsl 20 200 -100 6 0 1 \$0-fader-s \$0-fader-r empty 0 -9 0 12 #fcfcfc #000000 #000000 16300 1;
#X obj 334 29 inlet~;
#X obj 338 288 *~;
#X obj 103 103 tgl 20 1 \$0-mute-s \$0-mute-r empty 0 -10 0 12 #ff0400 #000000 #000000 1 1;
#X obj 332 190 *~;
#X obj 339 340 outlet~;
#X obj 241 105 == 0;
#X obj 396 340 outlet~;
#X obj 462 340 outlet~;
#X obj 132 103 else/knob 20 0 1 0 1 \$0-aux1-s \$0-aux1-r #dfdfdf #7c7c7c black 1 0 0 0 1 320 0 0 0;
#X obj 132 129 vu 20 200 empty empty -1 -10 0 12 #404040 #000000 0 0;
#X obj 333 59 vu-calc;
#X obj 156 129 vu 20 200 empty empty -1 -10 0 12 #404040 #000000 1 0;
#X obj 392 58 vu-calc;
#X obj 384 29 inlet~;
#X obj 379 190 *~;
#X obj 369 288 *~;
#X obj 469 29 inlet;
#X obj 241 130 pack 0 50;
#X obj 241 155 line~;
#X text 241 85 Mute Switch;
#X text 241 213 Fader;
#X obj 240 235 pack 0 50;
#X obj 240 260 line~;
#X text 461 292 Aux Send 1;
#X obj 548 376 outlet;
#X obj 461 315 *~;
#X text 344 316 Main Out;
#N canvas 3063 577 645 393 numbercruncher 0;
#X obj 87 10 inlet;
#X obj 269 255 loadbang;
#X obj 101 350 outlet;
#X text 227 82 Sends creation argument list to the GOP;
#X text 292 211 Receives GOP values and sends them on again to the saver;
#X obj 269 280 t b b b;
#X obj 245 225 t b f f;
#X obj 43 226 t b f f;
#X floatatom 500 317 5 0 0 0 - - - 0;
#X floatatom 415 317 5 0 0 0 - - - 0;
#X text 365 337 Atoms can be used to control whatever you want here!;
#X obj 43 140 s \$0-fader-r;
#X obj 43 197 r \$0-fader-s;
#X obj 150 139 s \$0-mute-r;
#X obj 149 196 r \$0-mute-s;
#X obj 87 44 unpack s f s f s f;
#X obj 149 227 t b f f;
#X obj 101 312 pack s f s f s f;
#X floatatom 456 317 5 0 0 0 - - - 0;
#X obj 241 138 s \$0-aux1-r;
#X obj 245 196 r \$0-aux1-s;
#X msg 43 273 symbol fader;
#X msg 288 332 symbol mute;
#X msg 308 306 symbol aux1;
#X connect 0 0 15 0;
#X connect 1 0 5 0;
#X connect 5 0 21 0;
#X connect 5 1 22 0;
#X connect 5 2 23 0;
#X connect 6 0 21 0;
#X connect 6 1 17 5;
#X connect 6 2 8 0;
#X connect 7 0 21 0;
#X connect 7 1 17 1;
#X connect 7 2 9 0;
#X connect 12 0 7 0;
#X connect 14 0 16 0;
#X connect 15 1 11 0;
#X connect 15 3 13 0;
#X connect 15 5 19 0;
#X connect 16 0 21 0;
#X connect 16 1 17 3;
#X connect 16 2 18 0;
#X connect 17 0 2 0;
#X connect 20 0 6 0;
#X connect 21 0 17 0;
#X connect 22 0 17 2;
#X connect 23 0 17 4;
#X restore 628 180 pd numbercruncher;
#X obj 628 251 iemguts/canvasargs;
#X obj 628 101 iemguts/canvasargs;
#X obj 601 33 loadbang;
#X obj 628 149 list trim;
#X obj 628 126 list;
#X obj 601 77 t b b;
#X msg 601 100 1;
#X obj 628 206 spigot;
#X text 669 199 This spigot is necessary because if one [canvasargs] object feeds the creation argument straight into another it will cause PD to crash.;
#X floatatom 240 391 5 0 0 0 - - - 0;
#X obj 240 366 dbtorms;
#X obj 240 340 + 120;
#X connect 0 0 25 0;
#X connect 0 0 40 0;
#X connect 1 0 4 0;
#X connect 1 0 11 0;
#X connect 2 0 5 0;
#X connect 2 0 26 0;
#X connect 3 0 6 0;
#X connect 4 0 2 0;
#X connect 6 0 18 0;
#X connect 9 0 26 1;
#X connect 11 0 10 0;
#X connect 13 0 12 0;
#X connect 14 0 15 0;
#X connect 14 0 13 0;
#X connect 15 0 16 0;
#X connect 16 0 7 0;
#X connect 16 0 26 0;
#X connect 17 0 0 0;
#X connect 18 0 19 0;
#X connect 19 0 4 1;
#X connect 19 0 15 1;
#X connect 22 0 23 0;
#X connect 23 0 16 1;
#X connect 23 0 2 1;
#X connect 26 0 8 0;
#X connect 28 0 36 0;
#X connect 30 0 33 0;
#X connect 31 0 34 0;
#X connect 32 0 28 0;
#X connect 33 0 32 0;
#X connect 34 0 35 0;
#X connect 34 1 30 0;
#X connect 35 0 36 1;
#X connect 36 0 29 0;
#X connect 38 0 22 0;
#X connect 39 0 38 0;
#X connect 40 0 39 0;
#X coords 0 -1 1 1 110 236 2 100 100;
