#N canvas 257 289 1600 837 12;
#X declare -lib zexy;
#X obj 10 807 dac~ 1 2 3;
#X obj 11 774 *~;
#X obj 41 775 *~;
#X obj 10 541 vsl 20 200 0.01 1 1 1 empty empty Main 0 -9 0 12 #fcfcfc #000000 #000000 16900 1;
#X obj 10 11 adc~ 1 2;
#X obj 127 9 adc~ 5 6;
#X text 13 30 Interface;
#X text 134 30 Reciever;
#X obj 361 8 adc~ 9 10;
#X obj 431 7 bendin;
#X obj 427 29 / 16383;
#X obj 471 318 bendout;
#X obj 366 318 * 16383;
#X obj 422 318 - 8192;
#X obj 481 10 adc~ 11 12;
#X text 486 30 Game Audio;
#X text 368 29 Music;
#X obj 599 10 adc~ 13 14;
#X text 604 30 Discord;
#X text 252 30 General;
#X obj 247 10 adc~ 7 8;
#X obj 11 750 catch~ bus-l;
#X obj 73 775 catch~ bus-r;
#X obj 158 503 catch~ bus-1;
#N canvas 528 396 627 289 osc 0;
#X msg 300 34 disconnect;
#X obj 130 9 loadbang;
#X msg 130 34 connect localhost 8000;
#X obj 7 92 mrpeach/udpreceive 3819;
#X obj 7 60 mrpeach/udpsend;
#X obj 7 117 mrpeach/unpackOSC;
#X obj 7 142 send osc-receive;
#X obj 7 9 receive osc-send;
#X obj 7 35 mrpeach/packOSC;
#X obj 387 118 route /sof-select;
#X obj 387 144 s sof-select-r;
#X obj 387 6 r sof-select-s;
#X msg 387 34 send /sof-select \$1;
#X connect 0 0 4 0;
#X connect 1 0 2 0;
#X connect 2 0 4 0;
#X connect 3 0 5 0;
#X connect 5 0 6 0;
#X connect 5 0 9 0;
#X connect 7 0 8 0;
#X connect 8 0 4 0;
#X connect 9 0 10 0;
#X connect 11 0 12 0;
#X connect 12 0 8 0;
#X restore 488 536 pd osc;
#X obj 484 608 receive osc-receive;
#X obj 484 633 print;
#X obj 743 784 dac~ 8 9;
#X obj 744 509 catch~ bus-2-l;
#X obj 868 509 catch~ bus-2-r;
#X obj 807 104 declare -lib zexy;
#X obj 9 50 abstractions/channel-strip-stereo master-mute 0 gain 3.61809 aux1 1.86935 aux1-mute 0 aux2 2.98023e-06 aux2-mute 0 channel-num 1;
#X obj 128 50 abstractions/channel-strip-stereo master-mute 0 gain 0 aux1 -9.94975 aux1-mute 0 aux2 0 aux2-mute 1 channel-num 2;
#X obj 247 50 abstractions/channel-strip-stereo master-mute 0 gain 11.4573 aux1 -39.7789 aux1-mute 0 aux2 0 aux2-mute 0 channel-num 3;
#X obj 362 50 abstractions/channel-strip-stereo master-mute 0 gain 11.3696 aux1 -13.3266 aux1-mute 0 aux2 0 aux2-mute 1 channel-num 4;
#X obj 481 50 abstractions/channel-strip-stereo master-mute 1 gain 0 aux1 0 aux1-mute 0 aux2 0 aux2-mute 1 channel-num 5;
#X obj 598 50 abstractions/channel-strip-stereo master-mute -100 gain 0 aux1 0 aux1-mute 0 aux2 0 aux2-mute 0 channel-num 6;
#X obj 157 529 abstractions/crossover fader 0.37 frequency 34.568 q 1.30178;
#X obj 36 539 abstractions/vu-meter;
#X obj 93 538 abstractions/vu-meter;
#X obj 720 49 vradio 20 1 1 4 sof-select-s sof-select-r SOF 0 -10 0 12 #fcfcfc #000000 #000000 1;
#X text 743 48 Gain;
#X text 744 69 Main;
#X text 744 89 Sub;
#X text 744 110 Aux 1;
#X obj 743 539 abstractions/bus-stereo;
#X obj 531 633 receive osc-send;
#X connect 1 0 38 0;
#X connect 1 0 0 0;
#X connect 2 0 0 1;
#X connect 2 0 39 0;
#X connect 3 0 2 1;
#X connect 3 0 1 1;
#X connect 4 0 31 0;
#X connect 4 1 31 1;
#X connect 5 0 32 0;
#X connect 5 1 32 1;
#X connect 8 0 34 0;
#X connect 8 1 34 1;
#X connect 9 0 10 0;
#X connect 10 0 34 2;
#X connect 12 0 13 0;
#X connect 13 0 11 0;
#X connect 14 0 35 0;
#X connect 14 1 35 1;
#X connect 17 0 36 0;
#X connect 17 1 36 1;
#X connect 20 0 33 0;
#X connect 20 1 33 1;
#X connect 21 0 1 0;
#X connect 22 0 2 0;
#X connect 23 0 37 0;
#X connect 25 0 26 0;
#X connect 28 0 45 0;
#X connect 29 0 45 1;
#X connect 34 0 12 0;
#X connect 37 0 0 2;
#X connect 45 0 27 0;
#X connect 45 1 27 1;
