#N canvas 1920 28 1600 842 12;
#X declare -lib zexy;
#X obj 14 801 dac~ 1 2 3;
#X obj 15 768 *~;
#X obj 45 769 *~;
#X obj 14 535 vsl 20 200 0.01 1 1 1 empty empty Main 0 -9 0 12 #fcfcfc #000000 #000000 16900 1;
#X obj 40 533 vu-meter;
#X obj 97 532 vu-meter;
#X obj 13 44 channel-strip-stereo fader -19.2965 mute 1 aux1 1 aux2 1;
#X obj 14 5 adc~ 1 2;
#X obj 131 3 adc~ 5 6;
#X obj 132 44 channel-strip-stereo fader -29.799 mute 1 aux1 2 aux2 0.01;
#X text 17 24 Interface;
#X text 138 24 Reciever;
#X obj 366 44 channel-strip-stereo fader -7.26375 mute 0 aux1 1 aux2 0.01;
#X obj 365 2 adc~ 9 10;
#X obj 435 1 bendin;
#X obj 428 24 / 16383;
#X obj 475 286 bendout;
#X obj 370 286 * 16383;
#X obj 426 286 - 8192;
#X obj 485 44 channel-strip-stereo fader -100 mute 1 aux1 2 aux2 0.01;
#X obj 485 4 adc~ 11 12;
#X text 490 24 Game Audio;
#X text 372 23 Music;
#X obj 602 44 channel-strip-stereo fader 10 mute 0 aux1 0 aux2 0.01;
#X obj 603 4 adc~ 13 14;
#X text 608 24 Discord;
#X obj 251 44 channel-strip-stereo fader -27.5879 mute 0 aux1 1 aux2 0.01;
#X text 256 24 General;
#X obj 251 4 adc~ 7 8;
#X obj 161 523 crossover fader 0.535357 frequency 34.568 q 1.30178;
#X obj 15 744 catch~ bus-l;
#X obj 77 769 catch~ bus-r;
#X obj 162 497 catch~ bus-1;
#N canvas 2710 200 450 300 osc 0;
#X msg 300 34 disconnect;
#X obj 130 9 loadbang;
#X msg 130 34 connect localhost 8000;
#X obj 7 92 mrpeach/udpreceive 3819;
#X obj 7 60 mrpeach/udpsend;
#X obj 7 117 mrpeach/unpackOSC;
#X obj 7 142 send osc-receive;
#X obj 7 9 receive osc-send;
#X obj 7 35 mrpeach/packOSC;
#X connect 0 0 4 0;
#X connect 1 0 2 0;
#X connect 2 0 4 0;
#X connect 3 0 5 0;
#X connect 5 0 6 0;
#X connect 7 0 8 0;
#X connect 8 0 4 0;
#X restore 656 594 pd osc;
#X obj 488 602 receive osc-receive;
#X obj 488 627 print;
#X obj 609 795 dac~ 8 9;
#X obj 609 765 *~;
#X obj 642 765 *~;
#X obj 581 644 vsl 20 170 0.01 1 1 1 empty empty empty 0 -9 0 12 #fcfcfc #000000 #000000 16900 1;
#X obj 607 738 catch~ bus-2-l;
#X obj 674 765 catch~ bus-2-r;
#X obj 811 98 declare -lib zexy;
#X obj 218 794 z~ 480;
#X text 219 772 Delay for network sync;
#X obj 795 625 vu-meter;
#X obj 850 626 vu-meter;
#X connect 1 0 4 0;
#X connect 1 0 43 0;
#X connect 2 0 0 1;
#X connect 2 0 5 0;
#X connect 3 0 2 1;
#X connect 3 0 1 1;
#X connect 7 0 6 0;
#X connect 7 1 6 1;
#X connect 8 0 9 0;
#X connect 8 1 9 1;
#X connect 12 0 17 0;
#X connect 13 0 12 0;
#X connect 13 1 12 1;
#X connect 14 0 15 0;
#X connect 15 0 12 2;
#X connect 17 0 18 0;
#X connect 18 0 16 0;
#X connect 20 0 19 0;
#X connect 20 1 19 1;
#X connect 24 0 23 0;
#X connect 24 1 23 1;
#X connect 28 0 26 0;
#X connect 28 1 26 1;
#X connect 29 0 0 2;
#X connect 30 0 1 0;
#X connect 31 0 2 0;
#X connect 32 0 29 0;
#X connect 34 0 35 0;
#X connect 37 0 36 0;
#X connect 37 0 45 0;
#X connect 38 0 36 1;
#X connect 38 0 46 0;
#X connect 39 0 37 1;
#X connect 39 0 38 1;
#X connect 40 0 37 0;
#X connect 41 0 38 0;
#X connect 43 0 0 0;
