#N canvas 1920 28 1600 842 12;
#X declare -lib zexy;
#X obj 14 801 dac~ 1 2 3;
#X obj 15 768 *~;
#X obj 45 769 *~;
#X obj 14 535 vsl 20 200 0.01 1 1 1 empty empty Main 0 -9 0 12 #fcfcfc #000000 #000000 16900 1;
#X obj 14 5 adc~ 1 2;
#X obj 131 3 adc~ 5 6;
#X text 17 24 Interface;
#X text 138 24 Reciever;
#X obj 365 2 adc~ 9 10;
#X obj 435 1 bendin;
#X obj 431 23 / 16383;
#X obj 475 312 bendout;
#X obj 370 312 * 16383;
#X obj 426 312 - 8192;
#X obj 485 4 adc~ 11 12;
#X text 490 24 Game Audio;
#X text 372 23 Music;
#X obj 603 4 adc~ 13 14;
#X text 608 24 Discord;
#X text 256 24 General;
#X obj 251 4 adc~ 7 8;
#X obj 15 744 catch~ bus-l;
#X obj 77 769 catch~ bus-r;
#X obj 162 497 catch~ bus-1;
#N canvas 507 472 450 262 osc 0;
#X msg 300 34 disconnect;
#X obj 130 9 loadbang;
#X msg 130 34 connect localhost 8000;
#X obj 7 92 mrpeach/udpreceive 3819;
#X obj 7 60 mrpeach/udpsend;
#X obj 7 117 mrpeach/unpackOSC;
#X obj 7 142 send osc-receive;
#X obj 7 9 receive osc-send;
#X obj 7 35 mrpeach/packOSC;
#X connect 0 0 4 0;
#X connect 1 0 2 0;
#X connect 2 0 4 0;
#X connect 3 0 5 0;
#X connect 5 0 6 0;
#X connect 7 0 8 0;
#X connect 8 0 4 0;
#X restore 656 594 pd osc;
#X obj 488 602 receive osc-receive;
#X obj 488 627 print;
#X obj 609 795 dac~ 8 9;
#X obj 609 765 *~;
#X obj 642 765 *~;
#X obj 584 643 vsl 20 170 0.01 1 1 1 empty empty empty 0 -9 0 12 #fcfcfc #000000 #000000 16900 1;
#X obj 607 738 catch~ bus-2-l;
#X obj 674 765 catch~ bus-2-r;
#X obj 811 98 declare -lib zexy;
#X obj 13 44 abstractions/channel-strip-stereo fader -22.3317 mute 0 aux1 0.108435 aux1-mute 0 aux2 2.98023e-06 aux2-mute 0 channel-num 1;
#X obj 132 44 abstractions/channel-strip-stereo fader -6.57286 mute 1 aux1 0.0250882 aux1-mute 1 aux2 2.98023e-06 aux2-mute 0 channel-num 2;
#X obj 251 44 abstractions/channel-strip-stereo fader -51.0352 mute 0 aux1 -3.74999 aux1-mute 0 aux2 2.98023e-06 aux2-mute 1 channel-num 3;
#X obj 366 44 abstractions/channel-strip-stereo fader -25.6001 mute 0 aux1 2.98023e-06 aux1-mute 0 aux2 2.98023e-06 aux2-mute 0 channel-num 4;
#X obj 485 44 abstractions/channel-strip-stereo fader -60.2 mute 1 aux1 0.00099957 aux1-mute 1 aux2 0.0100017 aux2-mute 1 channel-num 5;
#X obj 602 44 abstractions/channel-strip-stereo fader -16.7035 mute 0 aux1 0.101753 aux1-mute 0 aux2 0.0100017 aux2-mute 0 channel-num 6;
#X obj 161 523 abstractions/crossover fader 0.184642 frequency 34.568 q 1.30178;
#X obj 40 533 abstractions/vu-meter;
#X obj 97 532 abstractions/vu-meter;
#X obj 795 625 abstractions/vu-meter;
#X obj 851 625 abstractions/vu-meter;
#X connect 1 0 41 0;
#X connect 1 0 0 0;
#X connect 2 0 0 1;
#X connect 2 0 42 0;
#X connect 3 0 2 1;
#X connect 3 0 1 1;
#X connect 4 0 34 0;
#X connect 4 1 34 1;
#X connect 5 0 35 0;
#X connect 5 1 35 1;
#X connect 8 0 37 0;
#X connect 8 1 37 1;
#X connect 9 0 10 0;
#X connect 10 0 37 2;
#X connect 12 0 13 0;
#X connect 13 0 11 0;
#X connect 14 0 38 0;
#X connect 14 1 38 1;
#X connect 17 0 39 0;
#X connect 17 1 39 1;
#X connect 20 0 36 0;
#X connect 20 1 36 1;
#X connect 21 0 1 0;
#X connect 22 0 2 0;
#X connect 23 0 40 0;
#X connect 25 0 26 0;
#X connect 28 0 27 0;
#X connect 28 0 43 0;
#X connect 29 0 27 1;
#X connect 29 0 44 0;
#X connect 30 0 28 1;
#X connect 30 0 29 1;
#X connect 31 0 28 0;
#X connect 32 0 29 0;
#X connect 37 0 12 0;
#X connect 40 0 0 2;
