#N canvas 135 67 1596 842 12;
#X declare -lib zexy;
#X obj 8 741 dac~ 1 2 3;
#X obj 10 11 adc~ 1 2;
#X obj 240 475 catch~ bus-l;
#X obj 345 475 catch~ bus-r;
#X obj 132 475 catch~ bus-1;
#N canvas 464 580 627 289 osc 0;
#X msg 300 34 disconnect;
#X obj 130 9 loadbang;
#X obj 7 92 mrpeach/udpreceive 3819;
#X obj 7 60 mrpeach/udpsend;
#X obj 7 117 mrpeach/unpackOSC;
#X obj 7 142 send osc-receive;
#X obj 7 9 receive osc-send;
#X obj 7 35 mrpeach/packOSC;
#X obj 387 118 route /sof-select;
#X obj 387 144 s sof-select-r;
#X obj 387 6 r sof-select-s;
#X msg 387 34 send /sof-select \$1;
#X msg 130 34 connect localhost 8080;
#X connect 0 0 3 0;
#X connect 1 0 12 0;
#X connect 2 0 4 0;
#X connect 4 0 5 0;
#X connect 4 0 8 0;
#X connect 6 0 7 0;
#X connect 7 0 3 0;
#X connect 8 0 9 0;
#X connect 10 0 11 0;
#X connect 11 0 7 0;
#X connect 12 0 3 0;
#X restore 579 623 pd osc;
#X obj 579 675 receive osc-receive;
#X obj 579 700 print;
#X obj 459 440 catch~ bus-2-l;
#X obj 459 464 catch~ bus-2-r;
#X obj 579 647 declare -lib zexy;
#X obj 9 50 abstractions/channel-strip-stereo master-mute 0 gain 1.53592 aux1 0.434751 aux1-mute 0 aux2 0.885402 aux2-mute 0 channel-num 1;
#X obj 128 50 abstractions/channel-strip-stereo master-mute 1 gain 0.15748 aux1 -31.45 aux1-mute 0 aux2 0.87491 aux2-mute 0 channel-num 2;
#X obj 247 50 abstractions/channel-strip-stereo master-mute 1 gain 0 aux1 -100 aux1-mute 1 aux2 6.93786e-07 aux2-mute 0 channel-num 3;
#X obj 362 50 abstractions/channel-strip-stereo master-mute 1 gain 0 aux1 -100 aux1-mute 1 aux2 6.93786e-07 aux2-mute 0 channel-num 4;
#X obj 132 501 abstractions/crossover fader 0.203309 frequency 43.2426 q 0.852071;
#X obj 599 50 vradio 20 1 1 4 sof-select-s sof-select-r SOF 0 -10 0 12 #fcfcfc #000000 #000000 1;
#X text 622 49 Gain;
#X text 623 70 Main;
#X text 623 90 Sub;
#X text 623 111 Aux 1;
#X obj 626 700 receive osc-send;
#X text 43 493 Main;
#X text 494 493 Aux 1;
#X obj 459 734 dac~ 4 5;
#X text 13 30 General;
#X text 134 30 Interface;
#X obj 127 9 adc~ 3 4;
#X obj 247 10 adc~ 5 6;
#X text 252 30 Music;
#X text 368 29 Game Audio;
#X obj 361 8 adc~ 7 8;
#N canvas 789 705 450 300 fader-in 0;
#X obj 10 12 bendin;
#X obj 10 36 / 16383;
#X obj 10 60 outlet;
#X connect 0 0 1 0;
#X connect 1 0 2 0;
#X restore 118 319 pd fader-in;
#N canvas 818 705 450 300 fader-out 0;
#X obj 7 83 bendout;
#X obj 7 33 * 16383;
#X obj 7 58 - 8192;
#X obj 7 8 inlet;
#X connect 1 0 2 0;
#X connect 2 0 0 0;
#X connect 3 0 1 0;
#X restore 9 319 pd fader-out;
#X obj 479 50 abstractions/channel-strip-stereo master-mute 1 gain 0 aux1 -97.57 aux1-mute 1 aux2 6.93786e-07 aux2-mute 0 channel-num 5;
#X obj 478 8 adc~ 9 10;
#X text 485 29 Microphone;
#X obj 8 489 abstractions/bus-master-stereo;
#A saved 0 1;
#X obj 459 489 abstractions/bus-master-stereo;
#A saved 0 1;
#X connect 1 0 11 0;
#X connect 1 1 11 1;
#X connect 2 0 15 1;
#X connect 3 0 15 2;
#X connect 4 0 15 0;
#X connect 6 0 7 0;
#X connect 8 0 38 0;
#X connect 9 0 38 1;
#X connect 11 0 33 0;
#X connect 15 0 0 2;
#X connect 15 1 37 0;
#X connect 15 2 37 1;
#X connect 27 0 12 0;
#X connect 27 1 12 1;
#X connect 28 0 13 0;
#X connect 28 1 13 1;
#X connect 31 0 14 0;
#X connect 31 1 14 1;
#X connect 32 0 11 2;
#X connect 35 0 34 0;
#X connect 35 1 34 1;
#X connect 37 0 0 0;
#X connect 37 1 0 1;
#X connect 38 0 24 0;
#X connect 38 1 24 1;
