#N canvas 250 280 1035 770 12;
#X declare -lib zexy;
#X obj 8 741 dac~ 1 2 3;
#X obj 10 11 adc~ 1 2;
#X obj 8 440 catch~ bus-l;
#X obj 8 464 catch~ bus-r;
#X obj 132 473 catch~ bus-1;
#N canvas 528 396 627 289 osc 0;
#X msg 300 34 disconnect;
#X obj 130 9 loadbang;
#X msg 130 34 connect localhost 8000;
#X obj 7 92 mrpeach/udpreceive 3819;
#X obj 7 60 mrpeach/udpsend;
#X obj 7 117 mrpeach/unpackOSC;
#X obj 7 142 send osc-receive;
#X obj 7 9 receive osc-send;
#X obj 7 35 mrpeach/packOSC;
#X obj 387 118 route /sof-select;
#X obj 387 144 s sof-select-r;
#X obj 387 6 r sof-select-s;
#X msg 387 34 send /sof-select \$1;
#X connect 0 0 4 0;
#X connect 1 0 2 0;
#X connect 2 0 4 0;
#X connect 3 0 5 0;
#X connect 5 0 6 0;
#X connect 5 0 9 0;
#X connect 7 0 8 0;
#X connect 8 0 4 0;
#X connect 9 0 10 0;
#X connect 11 0 12 0;
#X connect 12 0 8 0;
#X restore 579 623 pd osc;
#X obj 579 675 receive osc-receive;
#X obj 579 700 print;
#X obj 459 440 catch~ bus-2-l;
#X obj 459 464 catch~ bus-2-r;
#X obj 579 647 declare -lib zexy;
#X obj 9 50 abstractions/channel-strip-stereo master-mute 1 gain 0 aux1 6.93786e-07 aux1-mute 1 aux2 6.93786e-07 aux2-mute 1 channel-num 1;
#X obj 128 50 abstractions/channel-strip-stereo master-mute 1 gain 0 aux1 6.93786e-07 aux1-mute 1 aux2 6.93786e-07 aux2-mute 1 channel-num 2;
#X obj 247 50 abstractions/channel-strip-stereo master-mute 1 gain 0 aux1 6.93786e-07 aux1-mute 1 aux2 6.93786e-07 aux2-mute 1 channel-num 3;
#X obj 362 50 abstractions/channel-strip-stereo master-mute 1 gain 0 aux1 6.93786e-07 aux1-mute 1 aux2 6.93786e-07 aux2-mute 1 channel-num 4;
#X obj 132 499 abstractions/crossover fader 0.37 frequency 34.568 q 1.30178;
#X obj 482 50 vradio 20 1 1 4 sof-select-s sof-select-r SOF 0 -10 0 12 #fcfcfc #000000 #000000 0;
#X text 505 49 Gain;
#X text 506 70 Main;
#X text 506 90 Sub;
#X text 506 111 Aux 1;
#X obj 459 489 abstractions/bus-stereo mute 1 fader 0;
#X obj 626 700 receive osc-send;
#X obj 8 489 abstractions/bus-stereo mute 1 fader -9.94975;
#X text 43 493 Main;
#X text 494 493 Aux 1;
#X obj 459 734 dac~ 4 5;
#X text 13 30 General;
#X text 134 30 Interface;
#X obj 127 9 adc~ 3 4;
#X obj 247 10 adc~ 5 6;
#X text 252 30 Music;
#X text 368 29 Game Audio;
#X obj 361 8 adc~ 7 8;
#N canvas 788 831 450 300 fader-in 0;
#X obj 10 12 bendin;
#X obj 10 36 / 16383;
#X obj 10 60 outlet;
#X connect 0 0 1 0;
#X connect 1 0 2 0;
#X restore 118 319 pd fader-in;
#N canvas 817 860 450 300 fader-out 0;
#X obj 7 83 bendout;
#X obj 7 33 * 16383;
#X obj 7 58 - 8192;
#X obj 7 8 inlet;
#X connect 1 0 2 0;
#X connect 2 0 0 0;
#X connect 3 0 1 0;
#X restore 9 319 pd fader-out;
#X connect 1 0 11 0;
#X connect 1 1 11 1;
#X connect 2 0 23 0;
#X connect 3 0 23 1;
#X connect 4 0 15 0;
#X connect 6 0 7 0;
#X connect 8 0 21 0;
#X connect 9 0 21 1;
#X connect 11 0 35 0;
#X connect 15 0 0 2;
#X connect 21 0 26 0;
#X connect 21 1 26 1;
#X connect 23 0 0 0;
#X connect 23 1 0 1;
#X connect 29 0 12 0;
#X connect 29 1 12 1;
#X connect 30 0 13 0;
#X connect 30 1 13 1;
#X connect 33 0 14 0;
#X connect 33 1 14 1;
#X connect 34 0 11 2;
